<ttFont>
<head>
    <!-- Most of this table will be recalculated by the compiler -->
    <tableVersion value="1.0"/>
    <fontRevision value="4.00099"/>
    <checkSumAdjustment value="0x89781aec"/>
    <magicNumber value="0x5f0f3cf5"/>
    <flags value="00000000 00000011"/>
    <unitsPerEm value="1000"/>
    <created value="Mon Mar 26 22:54:55 2018"/>
    <modified value="Mon Mar 26 22:54:55 2018"/>
    <xMin value="-520"/>
    <yMin value="-553"/>
    <xMax value="2620"/>
    <yMax value="1040"/>
    <macStyle value="00000000 00000000"/>
    <lowestRecPPEM value="3"/>
    <fontDirectionHint value="2"/>
    <indexToLocFormat value="0"/>
    <glyphDataFormat value="0"/>
  </head>
          <CharString index="0">
            103 callsubr
            -85 -54 -108 -132 hvcurveto
            return
          </CharString>
          <CharString index="1">
            12 -39 115 callsubr
            -108 -49 -61 callsubr
            -117 -119 -76 -79 -119 -18 2 -16 2 -17 hvcurveto
            41 hlineto
            -3 17 -2 16 17 vvcurveto
            100 62 63 93 94 61 -62 -103 -115 -87 -59 -117 vhcurveto
            -150 -165 hlineto
            -7 callgsubr
            return
          </CharString>
          <CharString index="2">
            -35 524 -257 vlineto
            -99 callgsubr
            return
          </CharString>
          <CharString index="3">
            27 317 512 rmoveto
            110 106 -70 -151 -7 hvcurveto
            -426 hlineto
            150 5 101 71 111 hhcurveto
            250 -334 rmoveto
            -47 hlineto
            -90 -18 -77 -57 -107 hhcurveto
            -112 -102 72 151 -4 hvcurveto
            469 hlineto
            2 18 0 12 24 vvcurveto
            126 -90 116 -163 -154 -110 -105 -173 -174 112 -106 152 139 89 79 107 21 vhcurveto
            return
          </CharString>
          <CharString index="4">
            20 -15 15 -20 -21 -15 -15 -20 -20 15 -15 21 20 15 15 20 vhcurveto
            return
          </CharString>
          <CharString index="5">
            rmoveto
            89 64 59 -95 callsubr
            85 vhcurveto
            return
          </CharString>
          <CharString index="6">
            44 316 hlineto
            153 -85 80 -126 -127 -77 -81 -108 -15 vhcurveto
            43 hlineto
            94 15 66 56 93 hhcurveto
            108 57 -66 -130 4 hvcurveto
            -196 hlineto
            -136 -69 -70 -96 -95 73 -63 106 104 86 60 86 32 hvcurveto
            -357 14 rmoveto
            75 55 51 106 vhcurveto
            196 -27 hlineto
            -134 -98 -86 -117 -85 -57 48 73 vhcurveto
            endchar
          </CharString>
          <CharString index="7">
            192 736 350 rmoveto
            211 -145 147 -196 -196 264 callgsubr
            -211 -210 145 -148 196 196 145 148 210 vhcurveto
            -636 hmoveto
            198 130 121 165 314 callgsubr
            -121 -198 -197 -129 -121 -165 -165 -130 121 197 vhcurveto
            return
          </CharString>
          <CharString index="8">
            -114 -52 78 127 hvcurveto
            246 328 -276 vlineto
            -94 -57 -81 -105 vhcurveto
            return
          </CharString>
          <CharString index="9">
            54 34 -55 hlineto
            -108 -59 57 85 71 46 56 79 80 43 -56 -64 -5 0 -8 -1 -14 hvcurveto
            34 hlineto
            1 12 0 11 7 vvcurveto
            88 -59 64 -99 return
          </CharString>
          <CharString index="10">
            -80 callgsubr
            59 163 callsubr
            -59 119 callsubr
            return
          </CharString>
          <CharString index="11">
            47 590 272 rmoveto
            173 -115 105 -152 -152 -117 -105 -173 -174 115 -106 152 330 callsubr
            106 174 vhcurveto
            -490 hmoveto
            164 108 75 114 114 109 -75 -164 -165 -110 -75 -114 -114 -107 75 165 vhcurveto
            return
          </CharString>
          <CharString index="12">
            -89 callsubr
            -62 60 return
          </CharString>
          <CharString index="13">
            -5 callgsubr
            hvcurveto
            -106 callgsubr
            return
          </CharString>
          <CharString index="14">
            -57 -96 callgsubr
            296 return
          </CharString>
          <CharString index="15">
            -146 93 -86 124 105 63 58 70 27 return
          </CharString>
          <CharString index="16">
            -35 328 -85 callsubr
            return
          </CharString>
          <CharString index="17">
            -121 -55 78 128 hvcurveto
            245 347 -274 vlineto
            -96 -61 -81 -110 vhcurveto
            363 451 rmoveto
            35 return
          </CharString>
          <CharString index="18">
            -86 callgsubr
            -92 return
          </CharString>
          <CharString index="19">
            -39 hlineto
            -130 -90 -92 -130 178 callgsubr
            153 109 72 141 vhcurveto
            79 174 hlineto
            endchar
          </CharString>
          <CharString index="20">
            -118 -74 74 112 hvcurveto
            143 13 -21 callsubr
            return
          </CharString>
          <CharString index="21">
            25 541 543 rmoveto
            -45 -291 hlineto
            -151 301 callsubr
            -109 -73 67 133 vhcurveto
            313 -44 -316 vlineto
            -164 99 -72 121 89 79 42 85 31 vhcurveto
            return
          </CharString>
          <CharString index="22">
            -297 vlineto
            -93 callsubr
            return
          </CharString>
          <CharString index="23">
            -99 callsubr
            717 451 rmoveto
            35 return
          </CharString>
          <CharString index="24">
            rmoveto
            -106 callsubr
            endchar
          </CharString>
          <CharString index="25">
            rmoveto
            -112 -86 73 127 122 90 74 108 return
          </CharString>
          <CharString index="26">
            rmoveto
            9 -32 vlineto
            -54 -32 -31 -62 -63 -32 31 54 vhcurveto
            -32 -8 hlineto
            -58 39 -56 88 87 39 56 57 vhcurveto
            return
          </CharString>
          <CharString index="27">
            51 -90 -131 hvcurveto
            -11 36 11 vlineto
            return
          </CharString>
          <CharString index="28">
            154 callgsubr
            -144 -80 78 137 147 return
          </CharString>
          <CharString index="29">
            157 callsubr
            -100 -14 2 -15 2 -14 vhcurveto
            40 hlineto
            -3 15 -1 14 13 vvcurveto
            81 47 47 66 79 35 -62 -98 vhcurveto
            -105 225 callgsubr
            -61 -101 -97 66 157 callgsubr
            return
          </CharString>
          <CharString index="30">
            301 -75 callgsubr
            return
          </CharString>
          <CharString index="31">
            27 34 -23 hlineto
            303 callgsubr
            return
          </CharString>
          <CharString index="32">
            -217 250 408 -82 hlineto
            -136 -85 -32 -106 vhcurveto
            242 -291 106 callgsubr
            125 92 47 148 hvcurveto
            87 233 8 callsubr
            return
          </CharString>
          <CharString index="33">
            78 hlineto
            130 117 47 144 98 -67 76 -107 -108 -70 -70 -107 -15 2 -20 2 -14 hvcurveto
            18 callsubr
            294 callgsubr
            -118 -27 -100 vhcurveto
            -105 hlineto
            -1 -15 -1 -13 -14 vvcurveto
            return
          </CharString>
          <CharString index="34">
            -114 301 callsubr
            -106 77 -74 113 return
          </CharString>
          <CharString index="35">
            rmoveto
            104 68 67 103 104 69 -67 -104 -102 -69 -67 -104 -103 -68 67 102 vhcurveto
            return
          </CharString>
          <CharString index="36">
            43 hlineto
            83 88 -29 -105 -72 -52 -58 -112 -134 -63 72 88 hvcurveto
            -40 hlineto
            return
          </CharString>
          <CharString index="37">
            978 410 rmoveto
            -71 hlineto
            96 -17 -76 67 -103 hhcurveto
            -102 -55 -56 -68 -24 hvcurveto
            256 636 -105 vlineto
            -59 callsubr
            -672 -258 -107 callsubr
            899 448 rmoveto
            105 return
          </CharString>
          <CharString index="38">
            -7 callsubr
            -101 -81 -121 vhcurveto
            return
          </CharString>
          <CharString index="39">
            -70 callgsubr
            133 return
          </CharString>
          <CharString index="40">
            249 callsubr
            -82 hlineto
            57 -25 -63 52 -113 189 callgsubr
            129 48 -79 -51 hvcurveto
            -129 vlineto
            -126 62 -89 125 124 callsubr
            -55 -65 -91 -99 -46 74 103 vhcurveto
            157 return
          </CharString>
          <CharString index="41">
            705 151 35 return
          </CharString>
          <CharString index="42">
            -35 455 -147 -146 vlineto
            182 callgsubr
            176 hlineto
            -27 12 51 -78 132 hhcurveto
            122 55 69 81 73 -37 43 -47 22 hvcurveto
            return
          </CharString>
          <CharString index="43">
            rmoveto
            -37 vlineto
            196 124 rlineto
            44 vlineto
            return
          </CharString>
          <CharString index="44">
            -102 28 86 -59 109 hhcurveto
            110 69 58 71 29 hvcurveto
            -244 132 callgsubr
            -638 -35 447 -256 vlineto
            72 -29 -68 58 -111 hhcurveto
            -125 -101 -84 -133 -6 hvcurveto
            239 -213 rmoveto
            -112 -87 73 127 122 90 74 109 151 callsubr
            endchar
          </CharString>
          <CharString index="45">
            -107 437 702 rmoveto
            -355 -702 355 38 -310 295 280 38 -280 293 310 hlineto
            return
          </CharString>
          <CharString index="46">
            44 callgsubr
            135 100 71 136 129 -79 74 return
          </CharString>
          <CharString index="47">
            39 callgsubr
            vhcurveto
            -246 133 callgsubr
            vlineto
            endchar
          </CharString>
          <CharString index="48">
            -116 -70 -74 -118 vhcurveto
            return
          </CharString>
          <CharString index="49">
            125 callgsubr
            hvcurveto
            -98 callsubr
            return
          </CharString>
          <CharString index="50">
            -82 vlineto
            -49 callgsubr
            return
          </CharString>
          <CharString index="51">
            rmoveto
            -2 190 -330 -89 168 vvcurveto
            56 55 47 79 96 50 -54 -68 4 vhcurveto
            45 hlineto
            101 -6 -75 59 -113 hhcurveto
            -106 -74 -65 -76 hvcurveto
            -206 333 87 -150 vvcurveto
            -59 -50 -50 -85 -103 -57 46 69 -7 vhcurveto
            -46 hlineto
            return
          </CharString>
          <CharString index="52">
            233 -50 callsubr
            return
          </CharString>
          <CharString index="53">
            -72 callsubr
            -100 -319 rmoveto
            -87 callsubr
            588 vlineto
            5 17 19 3 19 hhcurveto
            95 61 -62 -103 -115 -87 -59 -116 hvcurveto
            -115 hlineto
            114 -8 -81 70 -118 203 callsubr
            -68 75 -28 hvcurveto
            -70 -26 -61 -61 -97 hhcurveto
            824 156 rmoveto
            12 -39 115 callsubr
            -108 -49 -61 callsubr
            -118 318 callgsubr
            -17 hvcurveto
            -940 -35 314 -147 hlineto
            192 callgsubr
            75 62 29 52 34 hvcurveto
            -25 vlineto
            -130 68 -86 129 115 71 78 122 vhcurveto
            185 -191 rmoveto
            704 151 36 -192 -740 vlineto
            endchar
          </CharString>
          <CharString index="54">
            -170 -115 -76 -173 -25 callsubr
            return
          </CharString>
          <CharString index="55">
            29 547 hmoveto
            49 hlineto
            -257 686 rlineto
            -50 hlineto
            -258 -686 rlineto
            49 hlineto
            67 180 rlineto
            333 hlineto
            return
          </CharString>
          <CharString index="56">
            rmoveto
            -119 186 rlineto
            -41 hlineto
            118 -186 rlineto
            return
          </CharString>
          <CharString index="57">
            -69 callsubr
            414 541 rmoveto
            35 return
          </CharString>
          <CharString index="58">
            -35 926 -105 vlineto
            -59 callsubr
            -73 hlineto
            59 -19 -60 40 -107 hhcurveto
            -182 hlineto
            -92 callgsubr
            86 hlineto
            110 42 -49 -58 hvcurveto
            -161 vlineto
            -15 callsubr
            return
          </CharString>
          <CharString index="59">
            160 2 callsubr
            151 35 -152 return
          </CharString>
          <CharString index="60">
            -65 -23 callsubr
            return
          </CharString>
          <CharString index="61">
            -138 -105 -93 -147 -145 109 -90 136 return
          </CharString>
          <CharString index="62">
            -83 42 96 71 49 57 109 hvcurveto
            100 callsubr
            return
          </CharString>
          <CharString index="63">
            -107 callgsubr
            53 87 return
          </CharString>
          <CharString index="64">
            -47 -44 callsubr
            return
          </CharString>
          <CharString index="65">
            vhcurveto
            -151 219 callsubr
            hlineto
            endchar
          </CharString>
          <CharString index="66">
            211 188 hmoveto
            43 hlineto
            174 481 173 -481 rlineto
            43 hlineto
            171 543 rlineto
            -46 hlineto
            -146 -490 -173 490 rlineto
            -43 hlineto
            -174 -492 -146 492 rlineto
            -47 hlineto
            return
          </CharString>
          <CharString index="67">
            23 -17 16 -21 -22 -17 -16 -23 -23 17 -16 22 21 17 16 23 vhcurveto
            return
          </CharString>
          <CharString index="68">
            88 64 60 -95 callsubr
            85 vhcurveto
            748 -121 315 callgsubr
            100 162 hvcurveto
            3 0 3 3 vvcurveto
            129 2 89 46 135 61 callsubr
            return
          </CharString>
          <CharString index="69">
            hhcurveto
            -36 -30 36 hlineto
            97 44 -10 -204 110 hvcurveto
            96 -108 -42 3 -102 hhcurveto
            -35 -29 36 hlineto
            return
          </CharString>
          <CharString index="70">
            154 callgsubr
            -144 -80 79 136 145 72 70 131 121 26 -54 -26 7 hvcurveto
            -19 344 callsubr
            168 122 147 callsubr
          </CharString>
          <CharString index="71">
            vvcurveto
            104 -82 60 -95 -97 -83 -58 -110 -104 81 -61 94 -12 vhcurveto
            -94 -50 -105 -44 -121 vvcurveto
            -91 65 -69 102 94 44 59 29 8 vhcurveto
            -168 vlineto
            return
          </CharString>
          <CharString index="72">
            2 callsubr
            35 return
          </CharString>
          <CharString index="73">
            -12 hvcurveto
            100 callgsubr
            return
          </CharString>
          <CharString index="74">
            rmoveto
            196 -124 rlineto
            37 vlineto
            -196 131 rlineto
            return
          </CharString>
          <CharString index="75">
            40 -43 callgsubr
          </CharString>
          <CharString index="76">
            -10 callgsubr
            83 30 vhcurveto
            return
          </CharString>
          <CharString index="77">
            -93 callgsubr
            165 179 hlineto
            endchar
          </CharString>
          <CharString index="78">
            -13 callsubr
            -12 -1 return
          </CharString>
          <CharString index="79">
            57 30 41 64 94 vvcurveto
            return
          </CharString>
          <CharString index="80">
            705 vlineto
            endchar
          </CharString>
          <CharString index="81">
            114 71 77 120 return
          </CharString>
          <CharString index="82">
            70 callsubr
            98 67 149 hvcurveto
            return
          </CharString>
          <CharString index="83">
            161 callsubr
            -101 -46 -57 -77 vhcurveto
            -601 -124 rmoveto
            -87 callsubr
            728 -257 -112 vlineto
            -59 -48 -20 -37 -31 hvcurveto
            104 -14 -78 63 -112 hhcurveto
            -125 -83 -17 callgsubr
            1169 670 rmoveto
            35 -1527 -84 callgsubr
            17 -2 18 hhcurveto
            78 62 31 55 35 hvcurveto
            -69 18 57 -44 82 hhcurveto
            100 60 66 129 hvcurveto
            95 214 125 callsubr
            endchar
          </CharString>
          <CharString index="84">
            99 65 callsubr
            return
          </CharString>
          <CharString index="85">
            92 callsubr
            -138 87 -89 137 164 callgsubr
            return
          </CharString>
          <CharString index="86">
            vlineto
            92 83 38 152 hvcurveto
            151 return
          </CharString>
          <CharString index="87">
            868 -77 callsubr
            392 321 rmoveto
            -105 -60 -59 -71 -25 hvcurveto
            260 804 271 callsubr
            -116 -90 -35 -77 -46 hvcurveto
            125 -20 -77 61 -104 hhcurveto
            806 130 rmoveto
            35 -1531 41 callsubr
            113 77 -82 -183 -15 vhcurveto
            1 hlineto
            -1 -7 0 -8 -8 -69 callgsubr
            return
          </CharString>
          <CharString index="88">
            rmoveto
            20 -14 14 -20 -21 -14 -14 -20 -20 14 -14 21 20 14 14 20 vhcurveto
            return
          </CharString>
          <CharString index="89">
            54 272 -28 callgsubr
            return
          </CharString>
          <CharString index="90">
            95 192 219 callgsubr
            -171 93 -111 26 callsubr
          </CharString>
          <CharString index="91">
            75 -18 callsubr
            return
          </CharString>
          <CharString index="92">
            -126 62 -89 124 -26 callsubr
            return
          </CharString>
          <CharString index="93">
            hhcurveto
            318 callsubr
            74 63 25 70 vhcurveto
            189 176 149 35 return
          </CharString>
          <CharString index="94">
            39 callsubr
            -17 hlineto
            -1 return
          </CharString>
          <CharString index="95">
            902 1532 -35 callsubr
            -1564 -35 1373 -199 -274 -170 vlineto
            -88 -51 -63 -85 -82 -50 62 94 vhcurveto
            15 vlineto
            114 -65 84 -112 -112 -47 -88 -75 -12 vhcurveto
            100 callgsubr
            134 51 87 99 96 46 -73 -106 1 vhcurveto
            -113 1 63 -77 106 hhcurveto
            110 67 78 110 hvcurveto
            133 234 -470 40 705 vlineto
            return
          </CharString>
          <CharString index="96">
            -74 270 50 rmoveto
            -204 493 rlineto
            -49 hlineto
            228 -543 -101 -255 rlineto
            46 hlineto
            316 798 rlineto
            -46 hlineto
            return
          </CharString>
          <CharString index="97">
            98 52 callgsubr
            -100 -17 return
          </CharString>
          <CharString index="98">
            -24 callgsubr
            169 return
          </CharString>
          <CharString index="99">
            -99 65 -51 159 callsubr
            -63 -7 -63 -50 -88 vvcurveto
            return
          </CharString>
          <CharString index="100">
            -336 vlineto
            -124 return
          </CharString>
          <CharString index="101">
            103 callsubr
            -56 -24 -66 -54 -39 hvcurveto
            -3 2 -14 -12 rlineto
            -14 -25 -30 -8 -36 hhcurveto
            endchar
          </CharString>
          <CharString index="102">
            34 vlineto
            -8 -22 -22 -5 -20 hhcurveto
            -38 -27 17 36 28 16 27 50 23 hvcurveto
            return
          </CharString>
          <CharString index="103">
            rmoveto
            0 vlineto
            -1 -9 rlineto
            -147 -17 -84 -61 -126 hhcurveto
            -100 116 callsubr
            return
          </CharString>
          <CharString index="104">
            159 -54 callgsubr
            return
          </CharString>
          <CharString index="105">
            rmoveto
            207 callgsubr
            hvcurveto
            2 0 3 2 vvcurveto
            128 89 55 72 callgsubr
            -102 -81 -121 vhcurveto
            return
          </CharString>
          <CharString index="106">
            805 921 hmoveto
            -102 callgsubr
            -1467 88 callsubr
            return
          </CharString>
          <CharString index="107">
            144 callgsubr
            -139 92 -85 139 260 callgsubr
            -164 -150 rlineto
            -3 45 vlineto
            211 196 35 28 return
          </CharString>
          <CharString index="108">
            -90 39 81 -54 116 304 callgsubr
            vlineto
            -733 118 callsubr
            470 23 rmoveto
            -135 -81 80 132 -12 hvcurveto
            -5 hlineto
            -1 14 -3 15 -5 14 rrcurveto
            11 hlineto
            131 89 53 146 161 callgsubr
            -472 390 -87 callgsubr
            endchar
          </CharString>
          <CharString index="109">
            705 rmoveto
            return
          </CharString>
          <CharString index="110">
            -221 -32 callsubr
          </CharString>
          <CharString index="111">
            85 callgsubr
            vhcurveto
            35 callsubr
            endchar
          </CharString>
          <CharString index="112">
            hhcurveto
            103 callgsubr
          </CharString>
          <CharString index="113">
            161 185 callgsubr
            vhcurveto
            41 hlineto
            138 -94 88 -118 -104 -60 -59 -70 -26 vhcurveto
            259 402 35 -964 251 callsubr
            return
          </CharString>
          <CharString index="114">
            100 callsubr
            94 -57 123 return
          </CharString>
          <CharString index="115">
            -336 347 callsubr
            541 rmoveto
            35 return
          </CharString>
          <CharString index="116">
            -71 -66 27 76 89 86 17 70 hvcurveto
            171 179 return
          </CharString>
          <CharString index="117">
            rmoveto
            35 -697 299 callgsubr
            -145 97 -101 136 -22 hvcurveto
            -167 -167 rlineto
            46 hlineto
            23 callsubr
            -163 164 rlineto
            122 9 79 75 105 vvcurveto
            101 callsubr
          </CharString>
          <CharString index="118">
            -89 -52 -63 -84 -82 -50 63 88 vhcurveto
            1 vlineto
            3 0 4 3 vvcurveto
            108 -76 130 -168 -46 callsubr
            111 78 60 81 34 vhcurveto
            -62 23 52 -40 76 hhcurveto
            111 64 78 110 hvcurveto
            return
          </CharString>
          <CharString index="119">
            rmoveto
            -52 -44 -36 -60 -59 44 -36 52 53 43 36 59 60 -43 36 -53 hvcurveto
            -162 vmoveto
            -36 -28 26 41 41 28 25 36 37 27 -25 -41 -41 -27 -26 -37 hvcurveto
            return
          </CharString>
          <CharString index="120">
            167 callgsubr
            93 -111 168 121 43 callsubr
            return
          </CharString>
          <CharString index="121">
            101 vlineto
            20 callsubr
          </CharString>
          <CharString index="122">
            253 138 callsubr
            -301 rlineto
            -1 -4 -1 -3 -4 vvcurveto
            -48 -14 -56 -55 -92 hhcurveto
            446 313 rmoveto
            -131 -106 -54 -113 -37 hvcurveto
            -350 306 rlineto
            665 -139 hlineto
            return
          </CharString>
          <CharString index="123">
            59 21 -23 -32 -37 -21 -22 -59 hvcurveto
            -73 -33 81 hlineto
            71 41 37 55 58 -46 32 -81 -4 hvcurveto
            return
          </CharString>
          <CharString index="124">
            hhcurveto
            85 49 294 callgsubr
            -117 -27 -101 hvcurveto
            -74 hlineto
            83 -17 -60 55 -97 78 callgsubr
            54 87 105 92 47 -58 -75 6 vhcurveto
            -4 0 -3 -4 vvcurveto
            -162 98 -103 return
          </CharString>
          <CharString index="125">
            38 hlineto
            -3 16 -2 16 15 vvcurveto
            85 52 58 89 85 50 return
          </CharString>
          <CharString index="126">
            146 callsubr
            1 -98 65 -75 120 -17 -165 -165 rcurveline
            46 hlineto
            160 161 233 callsubr
            113 11 57 66 84 vvcurveto
            127 -104 39 -100 vhcurveto
            273 callsubr
            endchar
          </CharString>
          <CharString index="127">
            -78 callsubr
            endchar
          </CharString>
          <CharString index="128">
            -132 -100 -90 -126 -96 -81 43 95 50 callsubr
            return
          </CharString>
          <CharString index="129">
            rmoveto
            -73 -53 50 77 79 57 49 113 callsubr
            return
          </CharString>
          <CharString index="130">
            160 314 callsubr
            -161 rlineto
            45 hlineto
            return
          </CharString>
          <CharString index="131">
            -66 callsubr
            -1429 -84 callgsubr
            17 -2 18 hhcurveto
            88 68 40 70 31 hvcurveto
            -93 31 81 -53 102 hhcurveto
            110 68 57 71 30 hvcurveto
            -243 vlineto
            -201 149 197 callsubr
            return
          </CharString>
          <CharString index="132">
            rmoveto
            -36 hlineto
            -57 -44 -66 -102 -103 -44 66 57 vhcurveto
            -36 hlineto
            -74 55 -82 128 126 56 82 74 vhcurveto
            endchar
          </CharString>
          <CharString index="133">
            167 123 147 callsubr
          </CharString>
          <CharString index="134">
            79 807 -35 callsubr
            -839 -84 callgsubr
            17 -2 18 109 callsubr
            return
          </CharString>
          <CharString index="135">
            -114 93 -57 126 129 81 58 109 32 vhcurveto
            -63 callsubr
          </CharString>
          <CharString index="136">
            rmoveto
            149 111 102 148 142 -104 98 -136 8 hvcurveto
            150 351 35 return
          </CharString>
          <CharString index="137">
            rmoveto
            -626 vlineto
            -412 626 rlineto
            -45 -701 45 628 hlineto
            412 -628 rlineto
            45 701 hlineto
            return
          </CharString>
          <CharString index="138">
            22 91 186 rmoveto
            -110 13 68 -82 131 hhcurveto
            187 61 144 230 195 -45 157 -210 -164 -67 -110 -123 -151 88 -90 144 103 89 54 90 21 hvcurveto
            -263 9 -79 -94 -135 hhcurveto
            -101 -57 58 95 -13 hvcurveto
            168 98 rmoveto
            -122 -72 74 129 121 75 74 113 145 61 -103 -108 -125 -102 -62 -98 hvcurveto
            endchar
          </CharString>
          <CharString index="139">
            -120 729 rmoveto
            56 vlineto
            80 28 76 93 92 27 -76 -80 vhcurveto
            -45 38 callgsubr
            return
          </CharString>
          <CharString index="140">
            161 -77 callsubr
            605 451 rmoveto
            35 -938 41 callsubr
            286 callsubr
            40 hlineto
            139 -76 87 -136 -105 -61 -60 -71 -25 vhcurveto
            261 vlineto
            return
          </CharString>
          <CharString index="141">
            rmoveto
            -62 -122 rlineto
            34 hlineto
            72 122 rlineto
            85 hmoveto
            -66 -122 rlineto
            34 hlineto
            75 122 rlineto
            endchar
          </CharString>
          <CharString index="142">
            247 -474 278 callsubr
            return
          </CharString>
          <CharString index="143">
            -38 callsubr
            105 38 -6 -104 120 hvcurveto
            return
          </CharString>
          <CharString index="144">
            hlineto
            -73 callsubr
            108 77 72 107 return
          </CharString>
          <CharString index="145">
            -152 vlineto
            -106 -8 -44 -83 -12 -71 rrcurveto
            return
          </CharString>
          <CharString index="146">
            -139 119 callgsubr
            return
          </CharString>
          <CharString index="147">
            149 -97 callsubr
            return
          </CharString>
          <CharString index="148">
            -30 callgsubr
            51 109 132 return
          </CharString>
          <CharString index="149">
            rmoveto
            328 callsubr
            327 callgsubr
            122 65 -78 -79 8 hvcurveto
            343 callsubr
            -9 0 -9 1 -9 vhcurveto
            -8 vlineto
            -88 -55 -109 -141 vhcurveto
            463 15 rmoveto
            -142 -87 79 131 6 0 7 -1 7 hvcurveto
            129 90 49 149 hvcurveto
            113 -55 callsubr
            return
          </CharString>
          <CharString index="150">
            229 callgsubr
            vhcurveto
            162 callsubr
            return
          </CharString>
          <CharString index="151">
            227 callgsubr
            -60 callsubr
          </CharString>
          <CharString index="152">
            226 hlineto
            216 callgsubr
            -182 94 -118 167 124 callgsubr
          </CharString>
          <CharString index="153">
            -40 hlineto
            -123 -67 -71 -117 -131 -62 86 135 vhcurveto
            429 363 -136 vlineto
            -121 -41 -48 -108 8 vhcurveto
            -36 vlineto
            136 -11 53 60 147 vvcurveto
            137 return
          </CharString>
          <CharString index="154">
            -92 460 702 rmoveto
            -411 -41 359 hlineto
            -369 -623 rlineto
            -38 428 40 -376 vlineto
            369 623 rlineto
            return
          </CharString>
          <CharString index="155">
            58 163 callsubr
            -58 -110 return
          </CharString>
          <CharString index="156">
            -54 callgsubr
            153 -3 vlineto
            246 callsubr
            289 callgsubr
            vhcurveto
            188 callgsubr
            -20 -19 -3 -6 -17 vhcurveto
            return
          </CharString>
          <CharString index="157">
            71 49 57 109 vhcurveto
            -98 callsubr
            return
          </CharString>
          <CharString index="158">
            8 22 3 24 24 vvcurveto
            94 -49 68 -85 -85 -34 -63 -54 -10 vhcurveto
            -2 hlineto
            54 -9 -34 63 -80 hhcurveto
            -88 -54 -65 -97 -96 55 -74 108 7 11 0 1 6 hvcurveto
            31 vlineto
            -2 -5 -10 0 -7 hhcurveto
            -86 -45 60 80 75 37 56 74 71 35 -61 -93 hvcurveto
            -8 30 8 vlineto
            92 36 62 74 73 32 -57 -74 -16 -1 -16 -4 -15 vhcurveto
            return
          </CharString>
          <CharString index="159">
            rmoveto
            35 -699 -35 456 -148 -146 91 callgsubr
            172 179 hlineto
            endchar
          </CharString>
          <CharString index="160">
            36 callsubr
            287 callsubr
            hlineto
            return
          </CharString>
          <CharString index="161">
            -99 vlineto
            -24 callgsubr
            99 -40 -99 vlineto
            -110 63 -78 107 110 66 179 callgsubr
            return
          </CharString>
          <CharString index="162">
            733 1212 86 callsubr
            -1395 -35 727 -165 vlineto
            -135 -74 -27 -72 vhcurveto
            -11 hlineto
            63 -20 -64 61 -122 189 callgsubr
            118 50 -68 -50 7 hvcurveto
            -123 vlineto
            return
          </CharString>
          <CharString index="163">
            rmoveto
            37 hlineto
            36 8 27 24 48 hhcurveto
            47 30 -28 -40 -43 -33 -24 -47 hvcurveto
            -56 -29 55 hlineto
            47 35 -24 -44 -40 -29 -26 -51 -42 -33 16 53 -7 hvcurveto
            -38 hlineto
            -66 7 44 -34 70 hhcurveto
            78 42 46 48 45 -29 28 -38 12 hvcurveto
            2 vlineto
            42 11 23 30 41 vvcurveto
            58 -50 40 -65 -72 -42 -40 -52 -8 vhcurveto
            endchar
          </CharString>
          <CharString index="164">
            -35 468 194 callsubr
            83 89 -28 -107 -68 -49 -61 -103 -116 -66 70 90 -10 hvcurveto
            -36 -254 39 return
          </CharString>
          <CharString index="165">
            -257 vlineto
            10 callgsubr
            return
          </CharString>
          <CharString index="166">
            215 845 -35 callsubr
            -877 109 callgsubr
            rlineto
            175 25 120 113 177 vvcurveto
            return
          </CharString>
          <CharString index="167">
            184 37 callgsubr
            return
          </CharString>
          <CharString index="168">
            vvcurveto
            -23 callgsubr
            return
          </CharString>
          <CharString index="169">
            142 -84 64 -91 350 callgsubr
            vhcurveto
            35 hlineto
            -12 37 -7 35 30 vvcurveto
            103 73 34 57 67 71 -54 -120 -176 -143 -108 -188 -161 -114 62 123 83 55 69 134 vhcurveto
            23 35 -23 hlineto
            -115 -47 50 93 hvcurveto
            123 vlineto
            endchar
          </CharString>
          <CharString index="170">
            36 hlineto
            37 6 23 31 37 59 38 -68 69 hhcurveto
            60 33 39 69 11 hvcurveto
            -37 hlineto
            -37 -5 -21 -30 -39 -55 -40 68 -70 hhcurveto
            -58 -34 -40 -69 -13 hvcurveto
            return
          </CharString>
          <CharString index="171">
            -29 -28 -16 -40 -46 vvcurveto
            -99 65 -51 159 callsubr
            return
          </CharString>
          <CharString index="172">
            101 60 66 129 return
          </CharString>
          <CharString index="173">
            4 67 359 rmoveto
            -207 42 -157 192 191 42 157 207 205 -42 155 -191 -192 -42 -155 -205 vhcurveto
            423 hmoveto
            -181 -27 -142 -162 -162 -27 142 181 178 27 141 162 162 27 -141 -178 vhcurveto
            endchar
          </CharString>
          <CharString index="174">
            -104 -82 -90 -113 156 callgsubr
            vhcurveto
            return
          </CharString>
          <CharString index="175">
            rmoveto
            -297 6 callgsubr
            105 396 -122 vlineto
            -137 119 callgsubr
            249 -262 315 callgsubr
            82 136 4 0 4 1 6 hvcurveto
            125 92 346 callgsubr
            127 233 -350 347 callsubr
            555 rmoveto
            35 return
          </CharString>
          <CharString index="176">
            109 70 59 70 30 hvcurveto
            -239 vlineto
            -204 142 -51 callgsubr
            -2 412 rmoveto
            142 65 -110 -97 -43 -14 -50 -31 -39 hvcurveto
            -307 286 rlineto
            34 38 51 19 56 hhcurveto
            endchar
          </CharString>
          <CharString index="177">
            162 callgsubr
            hvcurveto
            -79 callsubr
            return
          </CharString>
          <CharString index="178">
            38 callsubr
            284 callsubr
            return
          </CharString>
          <CharString index="179">
            rmoveto
            -305 hlineto
            153 409 rlineto
            endchar
          </CharString>
          <CharString index="180">
            2 3 -15 vhcurveto
            -34 vlineto
            -3 return
          </CharString>
          <CharString index="181">
            148 callsubr
            50 return
          </CharString>
          <CharString index="182">
            hhcurveto
            -81 callgsubr
            endchar
          </CharString>
          <CharString index="183">
            -102 callsubr
            694 263 callsubr
            return
          </CharString>
          <CharString index="184">
            -254 vlineto
            71 -30 -71 62 -111 hhcurveto
            return
          </CharString>
          <CharString index="185">
            -11 22 -5 24 24 vvcurveto
            77 39 40 60 52 38 -37 -55 -3 vhcurveto
            33 hlineto
            75 4 -49 50 -70 hhcurveto
            -87 -38 -66 -72 -5 0 -5 1 -5 hvcurveto
            199 -109 -46 10 -106 -38 callsubr
            return
          </CharString>
          <CharString index="186">
            341 callsubr
            129 83 74 115 31 vhcurveto
            -105 34 85 -64 126 hhcurveto
            122 77 283 callsubr
            return
          </CharString>
          <CharString index="187">
            hhcurveto
            98 callgsubr
            hvcurveto
            -103 callgsubr
            return
          </CharString>
          <CharString index="188">
            401 -170 99 callsubr
          </CharString>
          <CharString index="189">
            14 10 rlineto
            75 58 45 57 86 vvcurveto
            89 -68 79 -112 -110 -67 -81 -90 -90 54 -63 95 -52 vhcurveto
            14 -8 -214 -163 rlineto
            -5 return
          </CharString>
          <CharString index="190">
            rmoveto
            148 93 46 93 vhcurveto
            15 47 hlineto
            -107 -67 -44 -79 -27 hvcurveto
            112 -45 -543 45 vlineto
            return
          </CharString>
          <CharString index="191">
            hlineto
            -114 -80 -71 -112 279 callsubr
            hvcurveto
            return
          </CharString>
          <CharString index="192">
            92 152 hvcurveto
            87 callgsubr
            return
          </CharString>
          <CharString index="193">
            hmoveto
            -66 callsubr
            return
          </CharString>
          <CharString index="194">
            -28 50 3 rmoveto
            472 38 -399 hlineto
            154 101 222 189 186 vvcurveto
            142 -95 61 -113 -133 -87 -85 -147 -9 vhcurveto
            44 hlineto
            109 7 57 84 121 hhcurveto
            125 39 -78 -87 -158 -178 -168 -227 -157 hvcurveto
            endchar
          </CharString>
          <CharString index="195">
            -35 915 -257 vlineto
            166 callsubr
            -77 -172 -25 callsubr
            131 hlineto
            -17 -33 -10 -39 -44 vvcurveto
            return
          </CharString>
          <CharString index="196">
            104 callgsubr
            -23 -21 -3 -6 -19 hvcurveto
            return
          </CharString>
          <CharString index="197">
            vlineto
            218 -132 -48 12 -119 hhcurveto
            -35 -34 36 hlineto
            102 40 -12 -184 117 hvcurveto
            return
          </CharString>
          <CharString index="198">
            269 406 rmoveto
            -83 46 -40 53 4 82 rrcurveto
            66 3 55 61 81 hhcurveto
            89 52 -65 -69 -78 -43 -49 -63 -49 hvcurveto
            -22 -17 rlineto
            return
          </CharString>
          <CharString index="199">
            272 callgsubr
            -143 -122 -74 -159 return
          </CharString>
          <CharString index="200">
            -3 21 hhcurveto
            119 91 85 return
          </CharString>
          <CharString index="201">
            -28 callsubr
            421 return
          </CharString>
          <CharString index="202">
            106 279 702 rmoveto
            -197 -702 197 hlineto
            239 132 130 220 220 -132 132 -239 hvcurveto
            -152 -664 rmoveto
            626 152 vlineto
            216 109 -120 -194 -193 -109 -119 -216 hvcurveto
            return
          </CharString>
          <CharString index="203">
            -63 callgsubr
            137 hlineto
            -18 -33 -10 -38 -44 vvcurveto
            -147 -60 callsubr
          </CharString>
          <CharString index="204">
            77 -74 224 callsubr
            return
          </CharString>
          <CharString index="205">
            172 269 444 rmoveto
            -87 41 -39 50 4 75 rrcurveto
            62 3 55 57 81 hhcurveto
            89 52 -61 -65 -71 -45 -42 -61 -47 hvcurveto
            -19 -15 rlineto
            312 -428 rmoveto
            37 -66 callsubr
            -190 -460 hlineto
            -277 132 10 8 rlineto
            return
          </CharString>
          <CharString index="206">
            -82 callsubr
            144 48 callsubr
            -144 vhcurveto
            endchar
          </CharString>
          <CharString index="207">
            -98 callsubr
            -97 -64 -68 -90 193 callsubr
            return
          </CharString>
          <CharString index="208">
            94 -64 68 -97 -82 -66 -52 -86 -8 1 -11 1 -7 vhcurveto
            145 callgsubr
          </CharString>
          <CharString index="209">
            2 callgsubr
            endchar
          </CharString>
          <CharString index="210">
            rmoveto
            -105 -81 71 126 119 84 72 102 132 54 -104 -91 return
          </CharString>
          <CharString index="211">
            -35 325 -57 callsubr
            return
          </CharString>
          <CharString index="212">
            rmoveto
            105 592 -257 vlineto
            -59 callgsubr
            -103 -84 -61 -102 -24 hvcurveto
            -285 6 callgsubr
            return
          </CharString>
          <CharString index="213">
            72 107 -12 callgsubr
            return
          </CharString>
          <CharString index="214">
            rmoveto
            -150 -91 -90 -132 -126 -97 93 147 145 97 94 126 132 91 -89 -150 vhcurveto
            endchar
          </CharString>
          <CharString index="215">
            705 152 return
          </CharString>
          <CharString index="216">
            hhcurveto
            123 87 77 126 126 -85 78 -125 -124 -85 -17 callgsubr
            -87 callsubr
            vlineto
            return
          </CharString>
          <CharString index="217">
            -35 422 -111 187 callgsubr
            -199 126 callsubr
            12 -39 -13 185 callsubr
            170 54 vlineto
            -8 -3 rlineto
            return
          </CharString>
          <CharString index="218">
            -405 -422 -107 callsubr
            return
          </CharString>
          <CharString index="219">
            31 callgsubr
            72 return
          </CharString>
          <CharString index="220">
            176 callgsubr
            -58 -76 vhcurveto
            return
          </CharString>
          <CharString index="221">
            -102 -55 -56 -69 -24 hvcurveto
            return
          </CharString>
          <CharString index="222">
            -12 vlineto
            -98 -56 -66 -91 return
          </CharString>
          <CharString index="223">
            -58 callsubr
            -21 353 callsubr
            vhcurveto
            return
          </CharString>
          <CharString index="224">
            126 756 -35 callsubr
            -788 -35 596 229 callsubr
            -359 -34 217 hlineto
            -76 -32 -45 -68 -87 vvcurveto
            -131 99 return
          </CharString>
          <CharString index="225">
            -564 rmoveto
            -112 -98 -94 callgsubr
            return
          </CharString>
          <CharString index="226">
            -110 -143 vhcurveto
            return
          </CharString>
          <CharString index="227">
            -209 280 callgsubr
            344 -302 rlineto
            -50 -9 -58 -63 -99 hhcurveto
            203 452 rmoveto
            35 -547 -14 callgsubr
            -150 71 -93 144 return
          </CharString>
          <CharString index="228">
            rmoveto
            -119 -61 70 109 6 0 6 1 6 hvcurveto
            107 73 29 84 107 -98 22 -98 hvcurveto
            -357 151 734 -356 hlineto
            -135 -61 -99 -121 vhcurveto
            222 -115 115 callgsubr
            return
          </CharString>
          <CharString index="229">
            rmoveto
            -437 -261 vlineto
            615 448 rmoveto
            37 -375 vlineto
            -419 -702 rlineto
            49 hlineto
            108 180 rlineto
            283 -180 354 37 -309 297 279 36 -279 295 hlineto
            endchar
          </CharString>
          <CharString index="230">
            rmoveto
            88 64 60 -95 callsubr
            85 vhcurveto
            return
          </CharString>
          <CharString index="231">
            114 70 312 callgsubr
            -39 -12 vlineto
            -97 return
          </CharString>
          <CharString index="232">
            145 callsubr
            vlineto
            return
          </CharString>
          <CharString index="233">
            hlineto
            -127 61 -88 125 113 70 78 121 vhcurveto
            return
          </CharString>
          <CharString index="234">
            hhcurveto
            190 callgsubr
          </CharString>
          <CharString index="235">
            -162 37 564 -36 vlineto
            -104 -93 -41 -72 -88 -78 174 callgsubr
            -169 -794 rmoveto
            -89 -68 56 97 38 12 31 21 24 hvcurveto
            258 -172 return
          </CharString>
          <CharString index="236">
            151 callgsubr
            -118 return
          </CharString>
          <CharString index="237">
            -106 97 callsubr
            return
          </CharString>
          <CharString index="238">
            153 callsubr
            543 -45 hlineto
            return
          </CharString>
          <CharString index="239">
            -259 41 705 return
          </CharString>
          <CharString index="240">
            113 108 77 return
          </CharString>
          <CharString index="241">
            47 callgsubr
            endchar
          </CharString>
          <CharString index="242">
            -35 464 -125 vlineto
            -76 -47 -67 -106 vhcurveto
            -35 -37 39 hlineto
            133 50 -98 -83 -105 -69 -75 -108 -108 -84 79 102 hvcurveto
            -39 hlineto
            -124 98 -94 134 135 80 91 return
          </CharString>
          <CharString index="243">
            253 179 rmoveto
            -73 -53 46 71 73 56 46 81 hvcurveto
            112 -78 328 callgsubr
            return
          </CharString>
          <CharString index="244">
            -9 callgsubr
            68 callgsubr
          </CharString>
          <CharString index="245">
            139 callgsubr
            342 return
          </CharString>
          <CharString index="246">
            -114 -80 -71 -112 -107 77 return
          </CharString>
          <CharString index="247">
            -135 76 -104 return
          </CharString>
          <CharString index="248">
            -55 -21 -47 -55 -79 vvcurveto
            -106 78 -68 104 74 58 37 59 26 vhcurveto
            -164 37 562 -35 vlineto
            -104 -94 -41 -72 -101 -65 58 90 104 78 51 124 vhcurveto
            139 162 hlineto
            return
          </CharString>
          <CharString index="249">
            -15 callsubr
            3 0 5 -1 5 vhcurveto
            -39 -12 hlineto
            155 callgsubr
          </CharString>
          <CharString index="250">
            -165 -130 121 196 197 130 121 165 return
          </CharString>
          <CharString index="251">
            -37 -28 -23 -44 -56 vvcurveto
            -97 66 223 callsubr
            return
          </CharString>
          <CharString index="252">
            -414 41 705 return
          </CharString>
          <CharString index="253">
            rmoveto
            35 -643 160 callsubr
            return
          </CharString>
          <CharString index="254">
            76 64 67 30 vhcurveto
            -260 0 callgsubr
          </CharString>
          <CharString index="255">
            50 77 78 57 return
          </CharString>
          <CharString index="256">
            58 callsubr
            -129 -102 -89 -140 -147 98 -88 133 46 callgsubr
          </CharString>
          <CharString index="257">
            -123 -55 78 129 hvcurveto
            207 vlineto
            342 -299 rlineto
            -67 -22 -56 -48 -86 hhcurveto
            return
          </CharString>
          <CharString index="258">
            143 48 callsubr
            -143 vhcurveto
            return
          </CharString>
          <CharString index="259">
            300 callgsubr
            hlineto
            -90 -73 -37 -89 return
          </CharString>
          <CharString index="260">
            -388 82 hmoveto
            45 return
          </CharString>
          <CharString index="261">
            -370 -362 rlineto
            -3 51 vlineto
            320 320 rlineto
            -320 68 callgsubr
          </CharString>
          <CharString index="262">
            -105 293 callgsubr
            102 -88 138 return
          </CharString>
          <CharString index="263">
            hhcurveto
            123 340 callgsubr
            return
          </CharString>
          <CharString index="264">
            207 callsubr
            -92 -60 -63 return
          </CharString>
          <CharString index="265">
            251 hlineto
            64 93 -8 -90 -69 -60 -18 -98 hvcurveto
            -19 hlineto
            -1 -11 -1 -12 -11 vvcurveto
            -130 67 -90 146 98 60 53 78 29 vhcurveto
            -213 vlineto
            endchar
          </CharString>
          <CharString index="266">
            67 -13 vhcurveto
            -3 vlineto
            return
          </CharString>
          <CharString index="267">
            -35 449 299 callsubr
            vlineto
            293 callsubr
            277 callgsubr
            hvcurveto
            -71 callsubr
            return
          </CharString>
          <CharString index="268">
            rmoveto
            222 callsubr
            return
          </CharString>
          <CharString index="269">
            132 callsubr
            vlineto
            return
          </CharString>
          <CharString index="270">
            -106 -93 hvcurveto
            -1 vlineto
            -86 return
          </CharString>
          <CharString index="271">
            -95 callgsubr
            376 289 59 callgsubr
            192 hmoveto
            35 return
          </CharString>
          <CharString index="272">
            rmoveto
            -143 -85 85 callsubr
            128 89 47 256 callsubr
          </CharString>
          <CharString index="273">
            -59 callgsubr
            -68 -60 -26 -48 -39 hvcurveto
            -157 hlineto
            272 callsubr
            return
          </CharString>
          <CharString index="274">
            204 callgsubr
            98 73 return
          </CharString>
          <CharString index="275">
            hhcurveto
            -11 295 rmoveto
            84 6 60 34 25 52 rrcurveto
            -228 vlineto
            -21 -5 -23 -9 -22 vhcurveto
            -252 167 25 21 34 12 38 2 rlinecurve
            endchar
          </CharString>
          <CharString index="276">
            -14 callgsubr
            -150 278 callgsubr
            87 60 45 53 26 vhcurveto
            -66 23 56 -43 80 hhcurveto
            111 62 78 109 hvcurveto
            312 return
          </CharString>
          <CharString index="277">
            45 249 hlineto
            237 -249 rlineto
            62 hlineto
            -266 273 263 270 rlineto
            -63 hlineto
            -233 -246 rlineto
            443 -45 vlineto
            endchar
          </CharString>
          <CharString index="278">
            140 callgsubr
            311 callgsubr
            86 vhcurveto
            return
          </CharString>
          <CharString index="279">
            355 callsubr
            vhcurveto
            78 hlineto
            130 117 47 144 98 -67 76 -107 return
          </CharString>
          <CharString index="280">
            87 152 callgsubr
            return
          </CharString>
          <CharString index="281">
            711 575 247 callgsubr
            255 return
          </CharString>
          <CharString index="282">
            95 215 125 callsubr
            return
          </CharString>
          <CharString index="283">
            62 113 292 callgsubr
            return
          </CharString>
          <CharString index="284">
            133 callsubr
            72 return
          </CharString>
          <CharString index="285">
            -138 87 -89 137 return
          </CharString>
          <CharString index="286">
            108 131 return
          </CharString>
          <CharString index="287">
            -112 93 -58 119 25 24 3 5 22 vhcurveto
            -197 -178 rlineto
            48 hlineto
            247 227 27 23 22 29 14 34 rlinecurve
            endchar
          </CharString>
          <CharString index="288">
            -38 callsubr
            106 38 -6 -107 122 hvcurveto
            return
          </CharString>
          <CharString index="289">
            -57 -76 vhcurveto
            161 300 callsubr
            187 -414 41 705 151 305 callsubr
            return
          </CharString>
          <CharString index="290">
            -38 hlineto
            -121 -101 -80 -120 -142 -87 90 154 vhcurveto
            87 callgsubr
            128 89 47 148 hvcurveto
            87 vlineto
            endchar
          </CharString>
          <CharString index="291">
            38 hlineto
            88 33 40 106 vhcurveto
            40 vlineto
            -134 -50 -57 -111 hvcurveto
            -38 return
          </CharString>
          <CharString index="292">
            vlineto
            128 callgsubr
            -99 -46 73 103 vhcurveto
            return
          </CharString>
          <CharString index="293">
            -702 306 38 -261 664 vlineto
            return
          </CharString>
          <CharString index="294">
            16 callgsubr
            2 hlineto
            return
          </CharString>
          <CharString index="295">
            -114 94 -57 123 125 82 72 112 30 vhcurveto
            -102 35 84 -62 124 156 callsubr
            return
          </CharString>
          <CharString index="296">
            292 callsubr
            -102 -72 -61 -101 -97 65 -65 99 190 callgsubr
          </CharString>
          <CharString index="297">
            63 111 105 78 62 return
          </CharString>
          <CharString index="298">
            67 149 hvcurveto
            return
          </CharString>
          <CharString index="299">
            rmoveto
            105 519 -139 -41 vlineto
            -126 -103 -50 -104 -41 hvcurveto
            235 callgsubr
            795 105 rmoveto
            35 return
          </CharString>
          <CharString index="300">
            -8 callsubr
            -114 return
          </CharString>
          <CharString index="301">
            251 callgsubr
            -86 -96 -30 -107 316 callgsubr
            hvcurveto
            48 hlineto
            return
          </CharString>
          <CharString index="302">
            -35 418 -105 vlineto
            259 callgsubr
            -231 hlineto
            -110 55 -78 112 97 59 74 114 vhcurveto
            return
          </CharString>
          <CharString index="303">
            21 651 -35 callsubr
            -683 -35 478 -127 -101 vlineto
            -143 -96 -61 -128 -97 61 -72 103 -12 hvcurveto
            return
          </CharString>
          <CharString index="304">
            rmoveto
            -112 -86 73 127 122 90 74 108 151 callsubr
            return
          </CharString>
          <CharString index="305">
            131 78 74 69 24 vhcurveto
            -252 vlineto
            endchar
          </CharString>
          <CharString index="306">
            -119 rmoveto
            -92 -70 57 99 99 67 61 124 55 45 9 17 37 hvcurveto
            -182 vlineto
            -71 -50 -89 -116 vhcurveto
            return
          </CharString>
          <CharString index="307">
            128 89 47 148 hvcurveto
            87 233 -7 callsubr
            return
          </CharString>
          <CharString index="308">
            hmoveto
            191 callgsubr
            51 179 callsubr
            97 82 -73 -118 return
          </CharString>
          <CharString index="309">
            rmoveto
            58 callsubr
            return
          </CharString>
          <CharString index="310">
            hhcurveto
            -125 -83 -78 -126 -92 47 return
          </CharString>
          <CharString index="311">
            -82 vlineto
            -125 345 callgsubr
            return
          </CharString>
          <CharString index="312">
            -598 -119 737 rmoveto
            return
          </CharString>
          <CharString index="313">
            88 64 60 90 87 63 return
          </CharString>
          <CharString index="314">
            277 callsubr
            -106 return
          </CharString>
          <CharString index="315">
            35 hlineto
            -12 37 -7 35 30 vvcurveto
            103 73 34 57 67 71 -54 -120 -176 -143 -108 -188 vhcurveto
            return
          </CharString>
          <CharString index="316">
            -135 -74 -27 -73 vhcurveto
            -41 -172 hlineto
            -140 92 -85 139 114 74 73 265 callgsubr
            16 return
          </CharString>
          <CharString index="317">
            hhcurveto
            107 78 106 callsubr
            246 -474 41 705 hlineto
            -543 -380 rmoveto
            89 return
          </CharString>
          <CharString index="318">
            -107 callsubr
            endchar
          </CharString>
          <CharString index="319">
            175 rlineto
            -49 hlineto
            -103 -175 103 -175 rlineto
            49 hlineto
            return
          </CharString>
          <CharString index="320">
            rmoveto
            200 -664 45 664 200 38 -445 hlineto
            return
          </CharString>
          <CharString index="321">
            311 233 callgsubr
            return
          </CharString>
          <CharString index="322">
            hvcurveto
            112 -97 hlineto
            return
          </CharString>
          <CharString index="323">
            95 36 49 74 65 40 -47 -65 -1 vhcurveto
            37 hlineto
            86 1 -53 62 -90 hhcurveto
            -98 -50 -67 -112 hvcurveto
            return
          </CharString>
          <CharString index="324">
            -144 94 -86 123 16 15 1 3 return
          </CharString>
          <CharString index="325">
            4 0 5 1 6 hvcurveto
            return
          </CharString>
          <CharString index="326">
            -35 151 -705 41 return
          </CharString>
          <CharString index="327">
            217 187 rmoveto
            -73 -53 51 76 78 56 49 81 hvcurveto
            112 -96 hlineto
            -100 -46 -58 -77 vhcurveto
            return
          </CharString>
          <CharString index="328">
            65 -42 27 vlineto
            31 11 17 35 vhcurveto
            28 vlineto
            -49 -30 -22 -69 -20 2 -25 4 -32 hvcurveto
            endchar
          </CharString>
          <CharString index="329">
            -72 -54 245 callsubr
            return
          </CharString>
          <CharString index="330">
            -47 callsubr
            vhcurveto
            return
          </CharString>
          <CharString index="331">
            177 callsubr
            107 return
          </CharString>
          <CharString index="332">
            -22 -20 -2 -4 -19 return
          </CharString>
          <CharString index="333">
            rmoveto
            123 229 -310 -327 vlineto
            57 30 41 63 94 vvcurveto
            421 123 rmoveto
            35 return
          </CharString>
          <CharString index="334">
            94 146 5 vhcurveto
            78 hlineto
            130 116 47 144 98 -66 76 -107 -21 -20 -3 -6 return
          </CharString>
          <CharString index="335">
            -92 39 80 -56 117 hhcurveto
            120 75 326 callgsubr
          </CharString>
          <CharString index="336">
            -366 vlineto
            67 callsubr
            31 34 return
          </CharString>
          <CharString index="337">
            740 rmoveto
            291 callsubr
            -11 -16 -35 vhcurveto
            -28 vlineto
            49 30 22 68 21 -2 25 return
          </CharString>
          <CharString index="338">
            -150 -1 -105 -55 -157 vvcurveto
            -121 89 -79 125 120 90 72 121 vhcurveto
            return
          </CharString>
          <CharString index="339">
            150 1 105 55 157 vvcurveto
            121 -89 79 -125 -120 -90 -72 -121 vhcurveto
            return
          </CharString>
          <CharString index="340">
            160 -161 rlineto
            45 hlineto
            -162 163 rlineto
            return
          </CharString>
          <CharString index="341">
            3 15 hhcurveto
            80 34 -62 -98 hvcurveto
            -105 return
          </CharString>
          <CharString index="342">
            -21 -17 -16 -23 -24 17 -15 21 hvcurveto
            return
          </CharString>
          <CharString index="343">
            214 callgsubr
            22 24 5 8 22 vhcurveto
            return
          </CharString>
          <CharString index="344">
            vlineto
            -140 91 -85 139 114 74 73 83 32 vhcurveto
            -3 14 15 -1 15 hhcurveto
            return
          </CharString>
          <CharString index="345">
            rmoveto
            43 hlineto
            94 65 61 103 100 70 -62 -100 -155 -118 -24 -117 vhcurveto
            -20 return
          </CharString>
          <CharString index="346">
            78 205 rlineto
            -57 hlineto
            -55 -205 rlineto
            endchar
          </CharString>
          <CharString index="347">
            320 -36 vlineto
            return
          </CharString>
          <CharString index="348">
            -152 vlineto
            -106 -8 -44 -83 -13 -71 rrcurveto
            -2 hlineto
            74 -13 195 callgsubr
            return
          </CharString>
          <CharString index="349">
            33 vlineto
            -5 -15 -26 -5 -26 hhcurveto
            -74 -65 34 89 70 48 57 87 hvcurveto
            18 31 return
          </CharString>
          <CharString index="350">
            -35 hlineto
            -96 -60 -81 -110 -122 -55 78 128 vhcurveto
            245 vlineto
            endchar
          </CharString>
          <CharString index="351">
            -95 -90 66 -62 99 97 64 69 126 hvcurveto
            return
          </CharString>
          <CharString index="352">
            74 callsubr
            163 callgsubr
            return
          </CharString>
          <CharString index="353">
            -171 93 -111 168 return
          </CharString>
          <CharString index="354">
            vlineto
            -28 callsubr
            return
          </CharString>
          <CharString index="355">
            -35 372 276 callgsubr
            return
          </CharString>
          <CharString index="356">
            -116 -70 -73 -118 vhcurveto
            return
          </CharString>
          <CharString index="357">
            -3 294 callsubr
            return
          </CharString>
          <CharString index="358">
            -35 524 -257 vlineto
            322 callsubr
            return
          </CharString>
          <CharString index="359">
            -599 rmoveto
            251 -44 vlineto
            -170 -254 rlineto
            -26 176 -74 38 74 return
          </CharString>
          <CharString index="360">
            hhcurveto
            -51 -44 -8 -15 -36 hvcurveto
            -47 15 -37 32 51 vvcurveto
            67 58 23 66 vhcurveto
            return
          </CharString>
          <CharString index="361">
            rlineto
            49 hlineto
            306 308 rlineto
            -243 38 -66 callsubr
            -191 return
          </CharString>
          <CharString index="362">
            102 175 -102 175 rlineto
            -50 hlineto
            106 -175 -106 -175 rlineto
            endchar
          </CharString>
          <CharString index="363">
            72 callgsubr
            -102 -81 -121 vhcurveto
            endchar
          </CharString>
          <CharString index="364">
            218 callsubr
            127 return
          </CharString>
          <CharString index="365">
            214 155 119 201 return
          </CharString>
          <CharString index="366">
            271 callgsubr
            92 hvcurveto
            92 return
          </CharString>
          <CharString index="367">
            40 107 callgsubr
            return
          </CharString>
          <CharString index="368">
            354 callgsubr
            67 30 return
          </CharString>
          <CharString index="369">
            64 67 30 hvcurveto
            -260 return
          </CharString>
          <CharString index="370">
            380 rmoveto
            35 return
          </CharString>
          <CharString index="371">
            -196 -346 return
          </CharString>
          <CharString index="372">
            560 hmoveto
            191 callgsubr
            51 108 130 98 82 -73 -118 return
          </CharString>
          <CharString index="373">
            hlineto
            -87 -68 -34 -82 -63 46 -37 44 -19 hvcurveto
            -79 -46 -36 -82 -91 vvcurveto
            return
          </CharString>
          <CharString index="374">
            -87 -73 45 96 73 49 58 107 hvcurveto
            6 34 -6 hlineto
            -107 -54 51 78 return
          </CharString>
          <CharString index="375">
            -254 vlineto
            71 -29 -68 57 -111 hhcurveto
            return
          </CharString>
          <CharString index="376">
            118 93 75 51 73 34 vhcurveto
            -234 return
          </CharString>
          <CharString index="377">
            116 callgsubr
            -124 -73 -90 -133 return
          </CharString>
          <CharString index="378">
            -204 -161 vlineto
            return
          </CharString>
          <CharString index="379">
            -170 -115 return
          </CharString>
          <CharString index="380">
            -45 hlineto
            -70 -64 26 78 88 84 17 68 hvcurveto
            165 179 hlineto
            return
          </CharString>
          <CharString index="381">
            298 callsubr
            endchar
          </CharString>
          <CharString index="382">
            331 callgsubr
            endchar
          </CharString>
          <CharString index="383">
            -113 vlineto
            -102 return
          </CharString>
          <CharString index="384">
            122 -47 78 return
          </CharString>
          <CharString index="385">
            40 705 hlineto
            return
          </CharString>
          <CharString index="386">
            -107 77 -73 224 callsubr
            71 -36 53 -47 26 return
          </CharString>
          <CharString index="387">
            -102 -72 -61 319 callgsubr
            return
          </CharString>
          <CharString index="388">
            13 -40 -12 vlineto
            -97 -55 -65 -91 -98 -47 74 103 vhcurveto
            174 return
          </CharString>
          <CharString index="389">
            -339 126 hmoveto
            45 711 -148 -41 103 hlineto
            endchar
          </CharString>
          <CharString index="390">
            262 callsubr
            40 705 return
          </CharString>
          <CharString index="391">
            -3 hlineto
            -56 callgsubr
            return
          </CharString>
          <CharString index="392">
            hhcurveto
            -96 -80 -49 -82 -36 hvcurveto
            return
          </CharString>
          <CharString index="393">
            116 64 -73 -118 vhcurveto
            return
          </CharString>
          <CharString index="394">
            -152 -35 151 -705 return
          </CharString>
          <CharString index="395">
            34 -23 hlineto
            -143 -80 return
          </CharString>
          <CharString index="396">
            -5 callgsubr
            vhcurveto
            return
          </CharString>
          <CharString index="397">
            -70 50 -39 47 -16 return
          </CharString>
          <CharString index="398">
            -65 42 -27 vlineto
            -31 return
          </CharString>
          <CharString index="399">
            276 callgsubr
            vlineto
            return
          </CharString>
          <CharString index="400">
            -86 -94 -30 -105 return
          </CharString>
          <CharString index="401">
            0 -3 -3 vvcurveto
            return
          </CharString>
          <CharString index="402">
            549 hmoveto
            396 194 vlineto
            45 34 12 22 22 hvcurveto
            return
          </CharString>
          <CharString index="403">
            302 321 callsubr
            return
          </CharString>
          <CharString index="404">
            -73 67 94 105 86 50 111 vhcurveto
            123 156 hlineto
            return
          </CharString>
          <CharString index="405">
            272 callsubr
            -76 -173 162 callgsubr
            hvcurveto
            return
          </CharString>
          <CharString index="406">
            -148 -139 return
          </CharString>
          <CharString index="407">
            160 rmoveto
            95 return
          </CharString>
          <CharString index="408">
            -80 -71 -113 return
          </CharString>
          <CharString index="409">
            -148 -96 73 126 137 104 64 129 vhcurveto
            return
          </CharString>
          <CharString index="410">
            -130 rmoveto
            78 204 rlineto
            -57 hlineto
            -56 -204 rlineto
            return
          </CharString>
          <CharString index="411">
            hmoveto
            107 callgsubr
            -192 291 callgsubr
            return
          </CharString>
          <CharString index="412">
            35 -192 -292 -187 101 vlineto
            277 callsubr
            return
          </CharString>
          <CharString index="413">
            331 callsubr
            1 -2 return
          </CharString>
          <CharString index="414">
            -95 vvcurveto
            -150 89 -122 163 -6 vhcurveto
            endchar
          </CharString>
          <CharString index="415">
            -101 -96 65 -66 99 101 60 66 return
          </CharString>
          <CharString index="416">
            rmoveto
            -214 257 214 hlineto
            return
          </CharString>
          <CharString index="417">
            rmoveto
            38 352 -92 -31 54 hlineto
            return
          </CharString>
          <CharString index="418">
            327 callsubr
            -113 return
          </CharString>
          <CharString index="419">
            1 -16 2 -15 vhcurveto
            return
          </CharString>
          <CharString index="420">
            -36 353 callgsubr
            return
          </CharString>
          <CharString index="421">
            161 160 return
          </CharString>
          <CharString index="422">
            -147 -146 return
          </CharString>
          <CharString index="423">
            -93 89 125 return
          </CharString>
          <CharString index="424">
            vlineto
            40 -1 rlineto
            return
          </CharString>
          <CharString index="425">
            225 callsubr
            hvcurveto
            -56 14 -43 34 58 vvcurveto
            return
          </CharString>
          <CharString index="426">
            283 callgsubr
            -93 140 return
          </CharString>
          <CharString index="427">
            -118 -73 74 112 hvcurveto
            143 12 vlineto
            92 return
          </CharString>
          <CharString index="428">
            254 rmoveto
            -115 -52 78 128 hvcurveto
            245 return
          </CharString>
          <CharString index="429">
            -59 callgsubr
            -123 -95 -86 -140 return
          </CharString>
          <CharString index="430">
            -145 110 -89 132 22 20 2 5 19 return
          </CharString>
          <CharString index="431">
            159 rmoveto
            -73 -53 50 77 78 56 50 81 hvcurveto
            return
          </CharString>
          <CharString index="432">
            rmoveto
            -73 -53 50 76 79 57 49 80 hvcurveto
            112 return
          </CharString>
          <CharString index="433">
            hlineto
            56 35 32 63 91 vvcurveto
            111 vlineto
            endchar
          </CharString>
          <CharString index="434">
            -366 vlineto
            -104 -82 -90 return
          </CharString>
          <CharString index="435">
            -114 -87 73 127 return
          </CharString>
          <CharString index="436">
            46 hlineto
            160 161 return
          </CharString>
          <CharString index="437">
            152 117 return
          </CharString>
          <CharString index="438">
            158 callgsubr
            -154 vlineto
            return
          </CharString>
          <CharString index="439">
            rmoveto
            -95 -80 48 103 76 52 62 129 hvcurveto
            return
          </CharString>
          <CharString index="440">
            -56 -80 vhcurveto
            134 104 rmoveto
            56 39 -41 -63 return
          </CharString>
          <CharString index="441">
            -74 callgsubr
            175 return
          </CharString>
          <CharString index="442">
            223 callgsubr
            -51 -63 -85 return
          </CharString>
          <CharString index="443">
            162 742 rmoveto
            -742 40 742 vlineto
            return
          </CharString>
          <CharString index="444">
            hhcurveto
            -266 -75 -112 -131 hvcurveto
            -22 vlineto
            return
          </CharString>
          <CharString index="445">
            138 -94 88 -119 -103 -60 -58 -70 -26 return
          </CharString>
          <CharString index="446">
            70 11 52 61 83 vvcurveto
            129 vlineto
            endchar
          </CharString>
          <CharString index="447">
            vlineto
            -134 -101 -62 -128 return
          </CharString>
          <CharString index="448">
            vvcurveto
            -162 97 -103 168 return
          </CharString>
          <CharString index="449">
            -61 355 callgsubr
            return
          </CharString>
          <CharString index="450">
            -2 352 callsubr
            return
          </CharString>
          <CharString index="451">
            vlineto
            -160 94 -104 return
          </CharString>
          <CharString index="452">
            107 78 72 107 71 return
          </CharString>
          <CharString index="453">
            464 rmoveto
            35 return
          </CharString>
          <CharString index="454">
            vlineto
            -124 -102 -81 -120 vhcurveto
            414 return
          </CharString>
          <CharString index="455">
            340 callgsubr
            41 705 return
          </CharString>
          <CharString index="456">
            53 356 rmoveto
            510 39 -510 hlineto
            return
          </CharString>
          <CharString index="457">
            -39 -157 vhcurveto
            -17 40 17 vlineto
            175 return
          </CharString>
          <CharString index="458">
            vlineto
            0 vlineto
            -127 -60 -76 -110 vhcurveto
            return
          </CharString>
          <CharString index="459">
            0 -3 -2 vvcurveto
            return
          </CharString>
          <CharString index="460">
            -19 -3 -6 -18 return
          </CharString>
          <CharString index="461">
            -14 hvcurveto
            38 hlineto
            return
          </CharString>
          <CharString index="462">
            94 146 4 return
          </CharString>
        <CharString name=".notdef">
          -98 0 vmoveto
          500 700 -500 hlineto
          250 -305 rmoveto
          -170 255 rlineto
          340 hlineto
          -140 -300 rmoveto
          170 255 rlineto
          -510 vlineto
          -370 -45 rmoveto
          170 255 170 -255 rlineto
          -370 555 rmoveto
          170 -255 -170 -255 rlineto
          endchar
        </CharString>
        <CharString name="A">
          -52 callsubr
          -14 38 72 callsubr
        </CharString>
        <CharString name="AE">
          261 451 654 122 callsubr
        </CharString>
        <CharString name="Aacute">
          -52 callsubr
          -276 588 -64 callsubr
          66 -681 72 callsubr
        </CharString>
        <CharString name="Abreve">
          -52 callsubr
          -40 688 -81 callsubr
          26 -650 72 callsubr
        </CharString>
        <CharString name="Acircumflex">
          -52 callsubr
          -38 614 -61 callgsubr
          24 -538 72 callsubr
        </CharString>
        <CharString name="Adieresis">
          -52 callsubr
          -237 589 -98 callgsubr
          79 -551 72 callsubr
        </CharString>
        <CharString name="Agrave">
          -52 callsubr
          -276 675 -33 callsubr
          262 -681 72 callsubr
        </CharString>
        <CharString name="Amacron">
          -52 callsubr
          -329 617 rmoveto
          324 35 -324 hlineto
          315 -614 72 callsubr
        </CharString>
        <CharString name="Aogonek">
          29 289 686 rmoveto
          -258 -686 rlineto
          49 hlineto
          67 180 rlineto
          333 hlineto
          64 -171 -23 -10 rlineto
          352 callgsubr
          22 24 5 8 21 vhcurveto
          34 vlineto
          -8 -21 -23 -5 -19 hhcurveto
          -38 -28 17 36 28 17 27 50 23 hvcurveto
          66 31 -257 686 rlineto
          127 -468 72 callsubr
        </CharString>
        <CharString name="Aring">
          -52 callsubr
          -166 605 rmoveto
          -36 -28 26 41 41 28 25 36 37 27 -25 -41 -41 -27 -26 -37 hvcurveto
          162 vmoveto
          -52 -44 -36 -60 -59 44 -36 52 53 43 36 59 60 -43 36 -53 hvcurveto
          152 -729 72 callsubr
        </CharString>
        <CharString name="Atilde">
          -52 callsubr
          -280 569 -97 callgsubr
          266 -531 72 callsubr
        </CharString>
        <CharString name="B">
          -19 484 191 rmoveto
          -94 -68 -58 -114 vhcurveto
          -175 305 172 hlineto
          115 70 -60 -93 hvcurveto
          -17 333 rmoveto
          -87 -57 -54 -107 vhcurveto
          -176 279 171 hlineto
          117 52 -57 -81 hvcurveto
          62 -336 rmoveto
          90 -64 71 -80 14 vhcurveto
          67 18 61 51 96 vvcurveto
          96 -65 78 -147 vhcurveto
          -219 -702 223 hlineto
          149 75 83 105 hvcurveto
          endchar
        </CharString>
        <CharString name="C">
          -60 callgsubr
          endchar
        </CharString>
        <CharString name="CR">
          -316 endchar
        </CharString>
        <CharString name="Cacute">
          -60 callgsubr
          242 420 -64 callsubr
          endchar
        </CharString>
        <CharString name="Ccaron">
          -60 callgsubr
          352 443 -58 callgsubr
        </CharString>
        <CharString name="Ccedilla">
          172 54 350 rmoveto
          -209 143 -148 192 vhcurveto
          -102 42 vlineto
          16 callsubr
          72 vlineto
          144 11 97 80 46 121 rrcurveto
          -52 hlineto
          -102 -39 -91 -71 -140 hhcurveto
          -161 -128 121 196 199 128 120 161 140 91 -71 -102 39 hvcurveto
          52 hlineto
          131 -50 -109 82 -163 hhcurveto
          -192 -143 -148 -211 hvcurveto
          endchar
        </CharString>
        <CharString name="Cdotaccent">
          -60 callgsubr
          352 405 -36 callgsubr
        </CharString>
        <CharString name="D">
          95 callsubr
          endchar
        </CharString>
        <CharString name="Dcaron">
          95 callsubr
          65 753 -58 callgsubr
        </CharString>
        <CharString name="Dcroat">
          60 callgsubr
        </CharString>
        <CharString name="E">
          -62 callsubr
          endchar
        </CharString>
        <CharString name="Eacute">
          -62 callsubr
          -306 104 -64 callsubr
          endchar
        </CharString>
        <CharString name="Ebreve">
          -62 callsubr
          -70 204 -81 callsubr
          endchar
        </CharString>
        <CharString name="Ecaron">
          -62 callsubr
          -196 127 -58 callgsubr
        </CharString>
        <CharString name="Ecircumflex">
          -62 callsubr
          -68 130 -61 callgsubr
          endchar
        </CharString>
        <CharString name="Edieresis">
          -62 callsubr
          -267 105 -98 callgsubr
          endchar
        </CharString>
        <CharString name="Edotaccent">
          -62 callsubr
          -196 88 -36 callgsubr
        </CharString>
        <CharString name="Egrave">
          -62 callsubr
          -306 191 -33 callsubr
          endchar
        </CharString>
        <CharString name="Emacron">
          -62 callsubr
          -359 133 105 callgsubr
        </CharString>
        <CharString name="Eogonek">
          -107 437 702 rmoveto
          -355 -702 282 hlineto
          -2 -1 rlineto
          -71 -32 -26 -38 -42 203 callgsubr
          -5 callsubr
          66 31 rlineto
          38 -310 295 280 38 -280 293 310 vlineto
          endchar
        </CharString>
        <CharString name="Eth">
          60 callgsubr
        </CharString>
        <CharString name="Euro">
          230 120 350 rmoveto
          -24 2 -24 4 -22 vhcurveto
          -104 -34 111 hlineto
          -152 39 125 -101 158 hhcurveto
          163 109 82 131 49 hvcurveto
          -51 hlineto
          -101 -40 -90 -71 -140 hhcurveto
          -130 -108 79 133 -37 hvcurveto
          277 34 -284 hlineto
          -4 22 -2 23 25 vvcurveto
          20 1 20 3 18 vhcurveto
          286 34 -280 hlineto
          143 33 110 83 135 hhcurveto
          140 90 -71 -101 40 hvcurveto
          51 hlineto
          131 -49 -109 82 -163 hhcurveto
          -163 -127 -106 -161 -35 hvcurveto
          -108 -34 102 hlineto
          -3 -19 -1 -19 -20 vvcurveto
          endchar
        </CharString>
        <CharString name="F">
          -117 82 hmoveto
          45 333 277 38 -277 293 317 38 -362 hlineto
          endchar
        </CharString>
        <CharString name="G">
          189 395 708 -62 callgsubr
          endchar
        </CharString>
        <CharString name="Gbreve">
          189 395 708 -62 callgsubr
          136 160 -81 callsubr
          endchar
        </CharString>
        <CharString name="Gdotaccent">
          189 395 708 -62 callgsubr
          9 44 -36 callgsubr
        </CharString>
        <CharString name="H">
          66 537 hmoveto
          45 702 -45 -324 -410 324 -45 -702 45 340 410 hlineto
          endchar
        </CharString>
        <CharString name="I">
          114 callgsubr
          endchar
        </CharString>
        <CharString name="Iacute">
          114 callgsubr
          -87 66 -64 callsubr
          endchar
        </CharString>
        <CharString name="Icircumflex">
          114 callgsubr
          151 92 -61 callgsubr
          endchar
        </CharString>
        <CharString name="Idieresis">
          114 callgsubr
          -48 67 -98 callgsubr
          endchar
        </CharString>
        <CharString name="Idotaccent">
          114 callgsubr
          23 50 -36 callgsubr
        </CharString>
        <CharString name="Igrave">
          114 callgsubr
          -87 153 -33 callsubr
          endchar
        </CharString>
        <CharString name="Imacron">
          114 callgsubr
          -140 95 105 callgsubr
        </CharString>
        <CharString name="Iogonek">
          -388 124 -183 rmoveto
          -5 callsubr
          66 31 rlineto
          702 -45 -690 236 callsubr
          endchar
        </CharString>
        <CharString name="Itilde">
          114 callgsubr
          -91 47 -97 callgsubr
          endchar
        </CharString>
        <CharString name="J">
          -135 329 157 rmoveto
          -58 -28 -66 -93 -95 -34 69 77 vhcurveto
          -45 hlineto
          -115 65 -71 109 104 63 69 95 vhcurveto
          545 -46 vlineto
          endchar
        </CharString>
        <CharString name="K">
          -67 450 hmoveto
          193 callgsubr
        </CharString>
        <CharString name="L">
          -190 82 702 rmoveto
          186 callsubr
          endchar
        </CharString>
        <CharString name="Lacute">
          -190 82 702 rmoveto
          186 callsubr
          -30 66 -64 callsubr
          endchar
        </CharString>
        <CharString name="Lcaron">
          -185 249 702 rmoveto
          291 callsubr
          -11 -17 -35 vhcurveto
          -28 vlineto
          50 29 22 69 21 -1 24 -5 32 hvcurveto
          -236 hmoveto
          186 callsubr
          endchar
        </CharString>
        <CharString name="Ldot">
          -190 82 702 rmoveto
          186 callsubr
          80 50 -36 callgsubr
        </CharString>
        <CharString name="Lslash">
          -175 100 702 rmoveto
          -324 vlineto
          -90 -39 rlineto
          -37 vlineto
          90 39 rlineto
          -341 306 36 -261 324 vlineto
          143 61 rlineto
          38 vlineto
          -143 -62 rlineto
          305 vlineto
          endchar
        </CharString>
        <CharString name="M">
          222 82 hmoveto
          45 593 hlineto
          265 -593 rlineto
          36 hlineto
          264 593 rlineto
          -593 45 687 -47 vlineto
          -280 -628 -280 628 rlineto
          -48 hlineto
          endchar
        </CharString>
        <CharString name="N">
          69 539 701 30 callsubr
          endchar
        </CharString>
        <CharString name="NULL">
          -598 endchar
        </CharString>
        <CharString name="Nacute">
          69 539 701 30 callsubr
          -360 67 -64 callsubr
          endchar
        </CharString>
        <CharString name="Ncaron">
          69 539 701 30 callsubr
          -250 90 -58 callgsubr
        </CharString>
        <CharString name="Ntilde">
          69 539 701 30 callsubr
          -364 48 -97 callgsubr
          endchar
        </CharString>
        <CharString name="O">
          -100 callsubr
          endchar
        </CharString>
        <CharString name="OE">
          501 1045 665 rmoveto
          37 -355 -206 vlineto
          130 -39 -117 82 -142 hhcurveto
          -193 264 callgsubr
          -211 -210 145 -148 194 141 117 83 131 39 hvcurveto
          -206 355 37 -310 296 280 37 -280 295 vlineto
          -340 3 rmoveto
          314 callgsubr
          -121 -197 -196 -129 -121 -165 143 callsubr
          hvcurveto
          endchar
        </CharString>
        <CharString name="Oacute">
          -100 callsubr
          193 418 -64 callsubr
          endchar
        </CharString>
        <CharString name="Ocircumflex">
          -100 callsubr
          431 444 -61 callgsubr
          endchar
        </CharString>
        <CharString name="Odieresis">
          -100 callsubr
          232 419 -98 callgsubr
          endchar
        </CharString>
        <CharString name="Ograve">
          -100 callsubr
          193 505 -33 callsubr
          endchar
        </CharString>
        <CharString name="Ohungarumlaut">
          -100 callsubr
          278 517 34 callsubr
        </CharString>
        <CharString name="Omacron">
          -100 callsubr
          141 447 105 callgsubr
        </CharString>
        <CharString name="Oslash">
          192 736 350 rmoveto
          102 -34 87 -57 62 vhcurveto
          93 101 rlineto
          -42 hlineto
          -72 -79 rlineto
          54 -60 -79 31 -90 hhcurveto
          -196 264 callgsubr
          -211 -101 33 -86 57 -63 hvcurveto
          -92 -100 rlineto
          42 hlineto
          72 78 rlineto
          -55 59 80 -31 90 hhcurveto
          196 145 148 210 hvcurveto
          -636 hmoveto
          198 130 121 165 78 70 -27 -50 52 vhcurveto
          -422 -460 rlineto
          -46 54 -27 74 90 vvcurveto
          295 -318 rmoveto
          -78 -71 27 50 -52 hvcurveto
          423 461 rlineto
          45 -55 27 -74 -91 vvcurveto
          -197 -129 -121 -165 vhcurveto
          endchar
        </CharString>
        <CharString name="Otilde">
          -100 callsubr
          189 399 -97 callgsubr
          endchar
        </CharString>
        <CharString name="P">
          -52 127 348 rmoveto
          314 150 vlineto
          134 51 -59 -99 -95 -51 -61 -134 hvcurveto
          230 156 rmoveto
          116 -69 82 -161 vhcurveto
          -195 -702 45 308 150 hlineto
          155 75 74 122 hvcurveto
          endchar
        </CharString>
        <CharString name="Q">
          193 100 350 rmoveto
          198 130 121 165 314 callgsubr
          -121 -198 -197 -129 -121 -165 -165 -130 121 197 vhcurveto
          636 hmoveto
          211 -145 147 -196 -196 264 callgsubr
          -211 -210 145 -148 196 39 37 6 11 34 vhcurveto
          178 -152 rlineto
          64 hlineto
          -198 169 rlineto
          113 56 74 118 150 vvcurveto
          endchar
        </CharString>
        <CharString name="R">
          -37 462 501 -38 callgsubr
          endchar
        </CharString>
        <CharString name="Racute">
          -37 462 501 -38 callgsubr
          -84 66 -64 callsubr
          endchar
        </CharString>
        <CharString name="Rcaron">
          -37 462 501 -38 callgsubr
          26 89 -58 callgsubr
        </CharString>
        <CharString name="S">
          -44 501 177 -64 callgsubr
          -98 8 82 -82 141 hhcurveto
          144 72 94 90 hvcurveto
          endchar
        </CharString>
        <CharString name="Sacute">
          -44 501 177 -64 callgsubr
          -98 8 82 -82 141 hhcurveto
          144 72 94 90 hvcurveto
          -335 593 -64 callsubr
          endchar
        </CharString>
        <CharString name="Scaron">
          -44 501 177 -64 callgsubr
          -98 8 82 -82 141 hhcurveto
          144 72 94 90 hvcurveto
          -226 616 -58 callgsubr
        </CharString>
        <CharString name="T">
          -103 25 664 213 callsubr
          endchar
        </CharString>
        <CharString name="Tcaron">
          -103 25 664 213 callsubr
          223 89 -58 callgsubr
        </CharString>
        <CharString name="Thorn">
          -52 127 194 rmoveto
          316 150 vlineto
          134 51 -60 -99 -95 -51 -62 -134 hvcurveto
          230 157 rmoveto
          116 -69 81 -161 vhcurveto
          -150 154 -45 -702 45 154 150 hlineto
          155 75 75 122 hvcurveto
          endchar
        </CharString>
        <CharString name="U">
          -85 callgsubr
          endchar
        </CharString>
        <CharString name="Uacute">
          -85 callgsubr
          134 66 -64 callsubr
          endchar
        </CharString>
        <CharString name="Ubreve">
          -85 callgsubr
          371 166 -81 callsubr
          endchar
        </CharString>
        <CharString name="Ucircumflex">
          -85 callgsubr
          372 92 -61 callgsubr
          endchar
        </CharString>
        <CharString name="Udieresis">
          -85 callgsubr
          173 67 -98 callgsubr
          endchar
        </CharString>
        <CharString name="Ugrave">
          -85 callgsubr
          134 153 -33 callsubr
          endchar
        </CharString>
        <CharString name="Uhungarumlaut">
          -85 callgsubr
          219 165 34 callsubr
        </CharString>
        <CharString name="Umacron">
          -85 callgsubr
          82 95 105 callgsubr
        </CharString>
        <CharString name="Uogonek">
          47 78 264 rmoveto
          -180 95 -82 130 -8 vhcurveto
          -63 -31 -23 -36 -40 203 callgsubr
          -5 callsubr
          64 30 rlineto
          107 22 73 83 160 vvcurveto
          438 -45 -439 vlineto
          -167 -82 -63 -116 -116 -85 63 167 vhcurveto
          439 -45 vlineto
          endchar
        </CharString>
        <CharString name="Uring">
          -85 callgsubr
          244 245 12 callsubr
          endchar
        </CharString>
        <CharString name="Utilde">
          -85 callgsubr
          130 47 -97 callgsubr
          endchar
        </CharString>
        <CharString name="V">
          41 319 53 rmoveto
          -243 649 rlineto
          -49 hlineto
          267 -702 rlineto
          50 hlineto
          268 702 rlineto
          -48 hlineto
          endchar
        </CharString>
        <CharString name="W">
          -41 callgsubr
          endchar
        </CharString>
        <CharString name="Wacute">
          -41 callgsubr
          416 82 -64 callsubr
          endchar
        </CharString>
        <CharString name="Wcircumflex">
          -41 callgsubr
          561 108 -61 callgsubr
          endchar
        </CharString>
        <CharString name="Wdieresis">
          -41 callgsubr
          361 82 -98 callgsubr
          endchar
        </CharString>
        <CharString name="Wgrave">
          -41 callgsubr
          252 168 -33 callsubr
          endchar
        </CharString>
        <CharString name="X">
          -55 456 hmoveto
          51 hlineto
          -211 351 212 351 rlineto
          -51 hlineto
          -184 -312 -187 312 rlineto
          -51 hlineto
          209 -348 -208 -354 rlineto
          50 hlineto
          181 315 rlineto
          endchar
        </CharString>
        <CharString name="Y">
          -16 callgsubr
          endchar
        </CharString>
        <CharString name="Yacute">
          -16 callgsubr
          135 66 -64 callsubr
          endchar
        </CharString>
        <CharString name="Ycircumflex">
          -16 callgsubr
          373 92 -61 callgsubr
          endchar
        </CharString>
        <CharString name="Ydieresis">
          -16 callgsubr
          174 67 -98 callgsubr
          endchar
        </CharString>
        <CharString name="Ygrave">
          -16 callgsubr
          135 153 -33 callsubr
          endchar
        </CharString>
        <CharString name="Z">
          47 callsubr
          endchar
        </CharString>
        <CharString name="Zacute">
          47 callsubr
          -316 105 -64 callsubr
          endchar
        </CharString>
        <CharString name="Zcaron">
          47 callsubr
          -206 128 -58 callgsubr
        </CharString>
        <CharString name="Zdotaccent">
          47 callsubr
          -206 89 -36 callgsubr
        </CharString>
        <CharString name="a">
          -31 callsubr
          -143 45 543 -45 -142 vlineto
          82 -30 -80 67 -120 -100 callgsubr
          endchar
        </CharString>
        <CharString name="a.ss02">
          -16 455 hmoveto
          -101 callsubr
        </CharString>
        <CharString name="aacute">
          -31 callsubr
          -143 45 543 -45 -142 vlineto
          82 -30 -80 67 -120 -100 callgsubr
          -317 352 -64 callsubr
          endchar
        </CharString>
        <CharString name="aacute.ss02">
          -16 229 324 callgsubr
          30 -755 rmoveto
          -101 callsubr
        </CharString>
        <CharString name="abreve">
          -31 callsubr
          -143 45 543 -45 -142 vlineto
          82 -30 -80 67 -120 -100 callgsubr
          -81 452 -81 callsubr
          endchar
        </CharString>
        <CharString name="abreve.ss02">
          -16 465 724 -81 callsubr
          -10 -724 rmoveto
          -101 callsubr
        </CharString>
        <CharString name="acircumflex">
          -31 callsubr
          -143 45 543 -45 -142 vlineto
          82 -30 -80 67 -120 -100 callgsubr
          -79 378 -61 callgsubr
          endchar
        </CharString>
        <CharString name="acircumflex.ss02">
          -16 467 650 -61 callgsubr
          -12 -612 rmoveto
          -101 callsubr
        </CharString>
        <CharString name="acute">
          -338 32 324 callgsubr
          endchar
        </CharString>
        <CharString name="adieresis">
          -31 callsubr
          -143 45 543 -45 -142 vlineto
          82 -30 -80 67 -120 -100 callgsubr
          -278 353 -98 callgsubr
          endchar
        </CharString>
        <CharString name="adieresis.ss02">
          -16 268 625 -98 callgsubr
          43 -625 rmoveto
          -101 callsubr
        </CharString>
        <CharString name="ae">
          524 -21 callgsubr
          endchar
        </CharString>
        <CharString name="agrave">
          -31 callsubr
          -143 45 543 -45 -142 vlineto
          82 -30 -80 67 -120 -100 callgsubr
          -317 439 -33 callsubr
          endchar
        </CharString>
        <CharString name="agrave.ss02">
          -16 229 711 -33 callsubr
          226 -755 rmoveto
          -101 callsubr
        </CharString>
        <CharString name="amacron">
          -31 callsubr
          -143 45 543 -45 -142 vlineto
          82 -30 -80 67 -120 -100 callgsubr
          -369 381 105 callgsubr
        </CharString>
        <CharString name="amacron.ss02">
          -13 177 653 rmoveto
          324 35 -324 hlineto
          278 -688 rmoveto
          -101 callsubr
        </CharString>
        <CharString name="ampersand">
          98 458 564 rmoveto
          90 1 -73 56 -88 hhcurveto
          -99 -66 -59 -85 -55 24 -44 50 -53 hvcurveto
          -106 -41 -60 -72 -102 vvcurveto
          -125 96 -85 136 98 73 36 78 68 vhcurveto
          101 -103 rlineto
          57 hlineto
          -132 136 23 30 23 36 23 41 rlinecurve
          68 118 rlineto
          -48 hlineto
          -56 -97 -22 -37 -21 -33 -20 -28 rlinecurve
          -255 262 rlineto
          -49 50 -26 40 48 vvcurveto
          63 48 43 71 60 56 -38 -70 vhcurveto
          -140 -535 rmoveto
          -109 -78 72 99 85 49 62 98 36 hvcurveto
          3 1 246 -250 rlineto
          -72 -61 -62 -33 -86 hhcurveto
          endchar
        </CharString>
        <CharString name="ampersand.ss03">
          68 172 568 rmoveto
          -69 35 -44 42 -47 vhcurveto
          25 -27 rlineto
          7 -15 -18 4 -20 hhcurveto
          -98 -84 -69 -127 -127 93 -76 107 107 80 77 104 4 hvcurveto
          10 0 9 -1 8 vhcurveto
          180 -201 rlineto
          54 hlineto
          -388 442 rlineto
          -34 39 -24 32 54 vvcurveto
          59 42 54 78 78 48 -50 -78 -9 -1 -10 -2 -10 vhcurveto
          45 hlineto
          2 11 1 12 11 vvcurveto
          80 -52 82 -119 -110 -55 -75 -76 vhcurveto
          -92 -371 rmoveto
          102 65 55 80 82 84 -71 -97 -88 -64 -66 -87 -85 -75 61 104 vhcurveto
          endchar
        </CharString>
        <CharString name="aogonek">
          -31 callsubr
          -131 236 callsubr
          -5 callsubr
          66 31 rlineto
          543 -45 -142 vlineto
          82 -30 -80 67 -120 -100 callgsubr
          endchar
        </CharString>
        <CharString name="aogonek.ss02">
          -16 429 -196 rmoveto
          22 24 5 8 22 hvcurveto
          -5 callsubr
          66 31 -1 2 rlineto
          314 vlineto
          153 -85 80 -126 -127 -77 -81 -108 -15 vhcurveto
          43 hlineto
          94 15 66 56 93 hhcurveto
          108 57 -66 -130 4 hvcurveto
          -196 hlineto
          -136 -69 -70 -96 -95 73 -63 106 104 86 60 86 32 hvcurveto
          -124 214 callgsubr
          vhcurveto
          -331 346 rmoveto
          75 55 51 106 vhcurveto
          196 -27 hlineto
          -134 -98 -86 -117 -85 -57 48 73 vhcurveto
          endchar
        </CharString>
        <CharString name="apostrophemod.ss01">
          -462 31 756 rmoveto
          143 callgsubr
        </CharString>
        <CharString name="approxequal">
          -148 39 244 rmoveto
          63 callsubr
          188 vmoveto
          63 callsubr
          endchar
        </CharString>
        <CharString name="aring">
          -31 callsubr
          -143 45 543 -45 -142 vlineto
          82 -30 -80 67 -120 -100 callgsubr
          -207 531 12 callsubr
          endchar
        </CharString>
        <CharString name="aring.ss02">
          -16 339 803 12 callsubr
          116 -641 rmoveto
          -101 callsubr
        </CharString>
        <CharString name="asciicircum">
          -19 494 172 rmoveto
          46 hlineto
          -232 514 rlineto
          -37 hlineto
          -232 -514 rlineto
          46 hlineto
          206 456 rlineto
          endchar
        </CharString>
        <CharString name="asciitilde">
          -148 39 268 rmoveto
          63 callsubr
          endchar
        </CharString>
        <CharString name="asterisk">
          -149 247 730 rmoveto
          -40 hlineto
          7 -163 -137 85 -19 -35 144 -71 -146 -71 21 -36 137 85 -7 -164 rlineto
          40 hlineto
          -7 164 137 -84 20 35 -146 71 144 71 -19 35 -136 -85 rlineto
          endchar
        </CharString>
        <CharString name="at">
          390 716 -6 rmoveto
          125 70 154 151 195 -142 136 -214 -277 -201 -215 -276 -202 142 -128 207 63 64 12 22 55 hvcurveto
          -7 34 rlineto
          -22 -51 -57 -11 -57 hhcurveto
          -193 -127 111 190 1 hvcurveto
          249 185 202 247 197 126 -117 -185 -122 -55 -144 -94 -53 -19 44 63 11 vhcurveto
          51 293 rlineto
          -40 hlineto
          -15 -88 rlineto
          66 -18 -51 35 -71 hhcurveto
          -143 -97 -132 -145 -103 59 -67 101 73 71 39 69 41 hvcurveto
          -62 -2 29 -46 66 hhcurveto
          -77 233 rmoveto
          -124 -17 -81 -72 -91 hhcurveto
          -82 -47 54 85 118 75 117 120 100 40 -80 -98 -17 hvcurveto
          endchar
        </CharString>
        <CharString name="atilde">
          -31 callsubr
          -143 45 543 -45 -142 vlineto
          82 -30 -80 67 -120 -100 callgsubr
          -321 333 -97 callgsubr
          endchar
        </CharString>
        <CharString name="atilde.ss02">
          -16 225 605 -97 callgsubr
          230 -605 rmoveto
          -101 callsubr
        </CharString>
        <CharString name="b">
          75 127 400 rmoveto
          340 -45 -740 45 142 vlineto
          -83 30 81 -67 119 194 callgsubr
          -118 -80 -66 -84 -32 hvcurveto
          446 -128 107 callsubr
        </CharString>
        <CharString name="backslash">
          -59 112 937 rmoveto
          -46 hlineto
          339 -1098 rlineto
          45 hlineto
          endchar
        </CharString>
        <CharString name="bar">
          -372 90 784 rmoveto
          -877 45 877 vlineto
          endchar
        </CharString>
        <CharString name="braceleft">
          -244 172 221 rmoveto
          -82 -26 -93 -90 vvcurveto
          -100 56 -42 87 vhcurveto
          40 40 -34 hlineto
          -66 -38 28 76 hvcurveto
          90 25 96 78 vvcurveto
          72 -34 58 -82 20 vhcurveto
          2 vlineto
          82 19 34 58 72 78 -25 96 90 vvcurveto
          76 38 28 66 vhcurveto
          34 40 -40 hlineto
          -87 -56 -42 -100 hvcurveto
          -90 26 -93 -82 vvcurveto
          -46 -13 -58 -96 -27 vhcurveto
          -41 vlineto
          96 -27 13 -57 -47 vvcurveto
          endchar
        </CharString>
        <CharString name="braceright">
          -244 182 221 rmoveto
          -82 26 -93 -90 vvcurveto
          -100 -56 -42 -87 vhcurveto
          -40 40 34 hlineto
          66 38 28 76 hvcurveto
          90 -25 96 78 vvcurveto
          72 34 58 82 20 vhcurveto
          2 vlineto
          -82 19 -34 58 72 78 25 96 90 vvcurveto
          76 -38 28 -66 vhcurveto
          -34 40 40 hlineto
          87 56 -42 -100 hvcurveto
          -90 -26 -93 -82 vvcurveto
          -46 13 -58 96 -27 vhcurveto
          -41 vlineto
          -96 -27 -13 -57 -47 vvcurveto
          endchar
        </CharString>
        <CharString name="bracketleft">
          -298 102 -185 rmoveto
          124 38 -81 1043 81 38 -124 hlineto
          endchar
        </CharString>
        <CharString name="bracketright">
          -298 198 -185 rmoveto
          -124 38 81 1043 -81 38 124 hlineto
          endchar
        </CharString>
        <CharString name="breve">
          -281 285 724 -81 callsubr
          endchar
        </CharString>
        <CharString name="brokenbar">
          -372 90 268 rmoveto
          -361 45 361 vlineto
          156 vmoveto
          360 -45 -360 vlineto
          endchar
        </CharString>
        <CharString name="bullet">
          -287 155 227 rmoveto
          60 47 47 59 60 -47 48 -60 -59 -47 -48 -60 -59 47 -47 59 hvcurveto
          endchar
        </CharString>
        <CharString name="c">
          -45 callgsubr
          endchar
        </CharString>
        <CharString name="cacute">
          -45 callgsubr
          149 352 -64 callsubr
          endchar
        </CharString>
        <CharString name="caron">
          -277 161 647 -58 callgsubr
        </CharString>
        <CharString name="ccaron">
          -45 callgsubr
          258 375 -58 callgsubr
        </CharString>
        <CharString name="ccedilla">
          23 54 272 rmoveto
          -166 101 -105 142 -8 vhcurveto
          -102 42 vlineto
          16 callsubr
          70 vlineto
          130 6 84 76 20 107 rrcurveto
          -47 hlineto
          -94 -18 -78 -56 -106 hhcurveto
          -116 -101 77 164 163 101 77 116 106 78 -57 -93 18 hvcurveto
          47 hlineto
          113 -21 -90 75 -138 hhcurveto
          -153 -110 -105 -173 hvcurveto
          endchar
        </CharString>
        <CharString name="cdotaccent">
          -45 callgsubr
          258 337 -36 callgsubr
        </CharString>
        <CharString name="cedilla">
          -341 98 7 rmoveto
          -35 -116 42 hlineto
          16 callsubr
          endchar
        </CharString>
        <CharString name="cent">
          17 538 203 rmoveto
          -43 hlineto
          -92 -16 -71 -56 -100 hhcurveto
          -109 -94 68 144 144 94 69 109 100 71 -57 -91 16 hvcurveto
          43 hlineto
          -16 105 -80 77 -124 4 rrcurveto
          101 -32 -102 vlineto
          -136 -9 -88 -97 -144 vvcurveto
          -144 88 -97 136 -9 vhcurveto
          -109 32 108 vlineto
          124 4 80 77 16 106 rrcurveto
          endchar
        </CharString>
        <CharString name="circumflex">
          -277 289 650 -61 callgsubr
          endchar
        </CharString>
        <CharString name="colon">
          -448 113 243 callgsubr
          444 vmoveto
          169 callgsubr
        </CharString>
        <CharString name="colon.ss01">
          -441 41 hmoveto
          331 callgsubr
          374 vmoveto
          275 callsubr
        </CharString>
        <CharString name="comma">
          -455 -16 -151 339 callgsubr
        </CharString>
        <CharString name="comma.ss01">
          -455 217 callgsubr
          endchar
        </CharString>
        <CharString name="copyright">
          201 56 351 rmoveto
          -206 140 -146 204 204 139 146 206 206 -139 146 -204 -204 -140 -146 -206 vhcurveto
          659 hmoveto
          -189 -122 -137 -193 -194 -122 137 189 189 122 136 194 193 122 -136 -189 vhcurveto
          -110 83 rmoveto
          -43 hlineto
          77 -24 -65 40 -71 hhcurveto
          -92 -82 -67 -134 -131 82 -68 92 72 63 40 77 25 hvcurveto
          43 hlineto
          -98 -27 -82 -55 -94 hhcurveto
          -116 -100 84 153 152 100 83 116 94 82 -53 -100 27 hvcurveto
          endchar
        </CharString>
        <CharString name="currency">
          -84 377 377 rmoveto
          -90 -59 -51 -62 -67 -52 51 90 89 52 53 67 64 57 -53 -89 vhcurveto
          43 -194 rmoveto
          23 23 -61 60 rlineto
          22 29 13 38 44 vvcurveto
          45 -13 38 -22 29 vhcurveto
          61 61 -23 23 -61 -60 rlineto
          24 -28 -36 14 -39 hhcurveto
          -40 -35 -14 -24 -28 hvcurveto
          -60 60 -24 -23 62 -61 rlineto
          -21 -29 -13 -38 -45 vvcurveto
          -44 12 -38 21 -29 vhcurveto
          -61 -60 24 -23 58 59 rlineto
          -25 27 37 -14 41 hhcurveto
          39 37 14 25 29 hvcurveto
          endchar
        </CharString>
        <CharString name="d">
          -16 callsubr
          67 85 30 vhcurveto
          -144 45 740 -45 -339 34 callgsubr
        </CharString>
        <CharString name="dagger">
          -128 253 538 rmoveto
          252 callgsubr
          -4 -765 rlineto
          43 hlineto
          -4 765 182 -4 rlineto
          38 vlineto
          endchar
        </CharString>
        <CharString name="daggerdbl">
          -127 436 543 rmoveto
          -183 -5 252 callgsubr
          rlineto
          -498 vlineto
          -183 6 rlineto
          -39 vlineto
          183 4 -4 -238 rlineto
          43 hlineto
          -4 238 183 -4 rlineto
          39 vlineto
          -183 -6 rlineto
          498 vlineto
          183 -4 rlineto
          endchar
        </CharString>
        <CharString name="danda">
          -352 336 callsubr
          endchar
        </CharString>
        <CharString name="dcaron">
          102 645 230 callsubr
          -4 31 hvcurveto
          -660 -468 -28 callgsubr
          67 85 30 vhcurveto
          -144 45 740 -45 -339 34 callgsubr
        </CharString>
        <CharString name="dcroat">
          70 -18 callsubr
          67 85 30 vhcurveto
          -144 45 634 65 31 -65 75 -45 -75 -172 -31 172 -233 34 callgsubr
        </CharString>
        <CharString name="degree">
          -223 29 521 rmoveto
          -105 64 -69 94 94 64 69 105 104 -64 69 -93 -94 -65 -69 -104 vhcurveto
          278 hmoveto
          -92 -50 -51 -70 -71 -48 51 92 90 49 52 70 71 49 -52 -90 vhcurveto
          endchar
        </CharString>
        <CharString name="dieresis">
          -281 87 625 -98 callgsubr
          endchar
        </CharString>
        <CharString name="divide">
          15 349 callsubr
          295 -233 rmoveto
          -40 callsubr
          429 vmoveto
          169 callgsubr
        </CharString>
        <CharString name="divide.ss01">
          15 53 355 rmoveto
          510 40 -510 hlineto
          220 -267 rmoveto
          71 72 -71 hlineto
          353 vmoveto
          275 callsubr
        </CharString>
        <CharString name="dollar">
          -32 261 -87 rmoveto
          32 80 hlineto
          141 60 97 87 137 -102 32 -99 28 hvcurveto
          295 vlineto
          89 -12 41 -64 10 -45 rrcurveto
          47 hlineto
          -13 76 -61 73 -113 11 rrcurveto
          88 -32 -87 vlineto
          -128 -73 -77 -100 -133 102 -30 99 -28 hvcurveto
          -308 vlineto
          -102 12 -43 75 -7 53 rrcurveto
          -47 hlineto
          7 -91 75 -77 117 -11 rrcurveto
          188 181 rmoveto
          -77 -52 -66 -104 -1 vhcurveto
          300 vlineto
          83 -24 73 -32 -100 vvcurveto
          -343 359 rmoveto
          89 63 47 92 1 vhcurveto
          -288 vlineto
          -82 24 -73 30 97 vvcurveto
          endchar
        </CharString>
        <CharString name="dotaccent">
          -448 75 625 -36 callgsubr
        </CharString>
        <CharString name="dotlessi">
          131 callsubr
          endchar
        </CharString>
        <CharString name="dottedcircle">
          53 557 409 -37 callgsubr
          -376 -286 -37 callgsubr
          98 -76 -37 callgsubr
          -143 189 -37 callgsubr
          267 -203 -37 callgsubr
          -252 324 -37 callgsubr
          367 -278 -37 callgsubr
          -291 377 -37 callgsubr
          364 -281 -37 callgsubr
          -247 323 -37 callgsubr
          257 -203 -37 callgsubr
          -136 188 -37 callgsubr
          endchar
        </CharString>
        <CharString name="doubledanda">
          -177 336 callsubr
          134 hmoveto
          -742 41 742 vlineto
          endchar
        </CharString>
        <CharString name="dvA">
          223 254 433 rmoveto
          -35 36 vlineto
          -47 callgsubr
          310 callgsubr
          -341 -256 vlineto
          -53 callgsubr
          endchar
        </CharString>
        <CharString name="dvAA">
          493 254 433 rmoveto
          -35 36 vlineto
          -47 callgsubr
          40 322 callgsubr
          -471 -341 -256 vlineto
          -53 callgsubr
          endchar
        </CharString>
        <CharString name="dvAI">
          53 348 19 rmoveto
          141 82 86 144 hvcurveto
          46 callsubr
          126 35 -128 90 callsubr
          -548 -35 146 -429 hlineto
          -153 72 -104 162 vhcurveto
          endchar
        </CharString>
        <CharString name="dvAU">
          502 701 hmoveto
          322 callgsubr
          -154 vlineto
          272 -138 -44 12 -118 36 callsubr
          -280 -341 -256 hlineto
          -53 callgsubr
          -36 -35 36 hlineto
          -47 callgsubr
          vlineto
          endchar
        </CharString>
        <CharString name="dvAbbreviationsign">
          -95 254 514 rmoveto
          -96 -69 -66 -92 -92 69 -66 96 94 66 65 91 94 -66 66 -94 hvcurveto
          -29 vmoveto
          76 54 -54 -77 -75 -54 -52 -76 -79 -56 53 76 76 56 53 79 hvcurveto
          endchar
        </CharString>
        <CharString name="dvAcandra">
          223 254 433 rmoveto
          -35 36 vlineto
          -47 callgsubr
          310 callgsubr
          -341 -256 vlineto
          -53 callgsubr
          582 572 25 callsubr
        </CharString>
        <CharString name="dvAnusvara">
          -598 -104 883 rmoveto
          -103 callsubr
          endchar
        </CharString>
        <CharString name="dvAnusvara.amI">
          -598 152 883 rmoveto
          -103 callsubr
          endchar
        </CharString>
        <CharString name="dvAvagraha">
          -34 326 70 rmoveto
          96 38 54 56 hvcurveto
          153 -277 95 132 vvcurveto
          62 50 15 57 vhcurveto
          182 35 -190 hlineto
          -73 -67 -25 -83 hvcurveto
          -158 277 -94 -128 vvcurveto
          -43 -33 -35 -67 vhcurveto
          -232 -36 hlineto
          endchar
        </CharString>
        <CharString name="dvB">
          -168 565 347 rmoveto
          108 -74 130 -168 -46 callsubr
          151 89 111 126 vhcurveto
          -241 207 -87 callgsubr
          242 151 rmoveto
          35 -598 -35 vlineto
          358 118 callsubr
          endchar
        </CharString>
        <CharString name="dvBA">
          92 570 hmoveto
          107 callgsubr
          -754 -35 563 77 callsubr
          -133 -106 -92 -147 138 callgsubr
          hvcurveto
          -239 vlineto
          -206 554 -22 callgsubr
        </CharString>
        <CharString name="dvBH">
          -105 -11 callgsubr
          195 34 -195 14 callsubr
        </CharString>
        <CharString name="dvBHA">
          163 253 159 rmoveto
          -73 -53 50 77 78 56 50 81 hvcurveto
          112 -97 hlineto
          -101 -47 -57 -76 vhcurveto
          161 160 rmoveto
          95 187 -414 41 705 151 35 -192 -292 -187 14 callsubr
        </CharString>
        <CharString name="dvBH_LA">
          798 -11 callgsubr
          174 vlineto
          -7 -25 -4 -28 -30 vvcurveto
          140 callsubr
          151 10 11 1 1 12 vhcurveto
          36 vlineto
          -1 -11 -10 -1 -9 hhcurveto
          -126 -63 88 115 106 54 81 106 100 215 callgsubr
          102 50 -84 -103 -115 -62 -88 -126 -10 -10 1 1 -11 vhcurveto
          -36 vlineto
          -1 12 11 -1 11 hhcurveto
          254 callgsubr
          -882 -35 565 241 callsubr
          -83 -60 -40 -66 -30 hvcurveto
          -187 101 hlineto
          20 callsubr
        </CharString>
        <CharString name="dvBH_NA">
          679 -11 callgsubr
          183 vlineto
          -13 -25 -7 -30 -34 vvcurveto
          -106 78 -74 113 345 callsubr
          -37 53 -46 26 vhcurveto
          247 -474 177 callgsubr
          -732 -35 540 -196 -345 hlineto
          -63 -54 -22 -39 -34 hvcurveto
          -207 101 hlineto
          -78 callsubr
          201 6 rmoveto
          89 63 59 -86 callgsubr
          -91 -62 60 85 vhcurveto
          endchar
        </CharString>
        <CharString name="dvBH_R">
          -105 136 callsubr
          314 callsubr
          rmoveto
          76 195 34 -195 100 vlineto
          89 callgsubr
          -104 225 callgsubr
          -58 244 callsubr
          -96 -404 rmoveto
          291 292 rlineto
          43 vlineto
          -339 -335 rlineto
          endchar
        </CharString>
        <CharString name="dvBH_RA">
          163 136 callsubr
          314 callsubr
          rmoveto
          76 209 -130 vlineto
          -353 -350 rlineto
          48 hlineto
          306 308 rlineto
          -243 38 -66 callsubr
          -190 -291 -209 100 vlineto
          89 callgsubr
          -104 225 callgsubr
          -58 244 callsubr
          endchar
        </CharString>
        <CharString name="dvBH_R_YA">
          618 136 callsubr
          581 -15 -2 callsubr
          -420 175 rmoveto
          76 153 -4 vlineto
          -58 11 -51 20 -42 vhcurveto
          -328 -325 rlineto
          48 hlineto
          297 297 rlineto
          -65 43 72 -38 98 hhcurveto
          289 callgsubr
          hvcurveto
          -262 40 705 151 35 -696 -35 231 -82 vlineto
          -137 -85 -38 -106 vhcurveto
          -178 101 hlineto
          89 callgsubr
          -105 225 callgsubr
          -57 244 callsubr
          endchar
        </CharString>
        <CharString name="dvBH_VA">
          578 -11 callgsubr
          171 222 callgsubr
          112 68 59 73 29 vhcurveto
          -247 132 callgsubr
          -653 -35 462 -258 vlineto
          73 -28 -68 59 -113 285 callsubr
          -182 101 hlineto
          -78 callsubr
          81 callsubr
        </CharString>
        <CharString name="dvBH_YA">
          618 -11 callgsubr
          153 -3 vlineto
          246 callsubr
          289 callgsubr
          vhcurveto
          -262 40 705 151 35 -696 -35 231 -82 vlineto
          -137 -85 -38 -106 vhcurveto
          -178 101 hlineto
          -78 callsubr
          420 -155 -2 callsubr
          endchar
        </CharString>
        <CharString name="dvB_BA">
          543 324 554 -87 callgsubr
          697 -554 rmoveto
          107 callgsubr
          -1205 -35 1014 77 callsubr
          -103 -86 -55 -94 -34 hvcurveto
          80 -29 -72 70 -123 hhcurveto
          -46 callsubr
          113 78 62 85 31 hvcurveto
          -93 34 89 -54 103 hhcurveto
          109 71 59 71 29 hvcurveto
          -240 vlineto
          -656 141 rmoveto
          -112 -98 -94 callgsubr
          452 1 -51 callgsubr
          -2 412 rmoveto
          142 65 -110 -97 -43 -14 -50 -31 -39 hvcurveto
          -307 286 rlineto
          34 38 51 19 56 hhcurveto
          endchar
        </CharString>
        <CharString name="dvB_BHA">
          600 690 117 callgsubr
          -106 -19 -17 -3 -6 -14 vhcurveto
          -680 -35 679 1 hlineto
          9 -1 rlineto
          5 13 14 234 callsubr
          -112 vlineto
          -60 -50 -21 -39 -30 hvcurveto
          97 -16 -74 100 -147 hhcurveto
          -46 callsubr
          101 72 50 70 37 hvcurveto
          -65 20 57 -41 78 hhcurveto
          65 callsubr
          hvcurveto
          -527 235 -87 callgsubr
          2 -413 rmoveto
          -112 -98 -94 callgsubr
          endchar
        </CharString>
        <CharString name="dvB_BH_RA">
          623 324 554 -87 callgsubr
          2 -413 rmoveto
          -112 -98 -94 callgsubr
          366 38 rmoveto
          -72 -54 46 71 73 57 46 80 hvcurveto
          112 -78 328 callgsubr
          -34 526 rmoveto
          5 13 14 3 16 hhcurveto
          80 34 -62 -98 hvcurveto
          -104 -112 vlineto
          -62 -51 -21 -38 -31 hvcurveto
          97 -16 -74 98 -146 hhcurveto
          -46 callsubr
          104 74 53 74 36 hvcurveto
          -57 22 56 -36 76 hhcurveto
          97 63 69 126 hvcurveto
          76 209 -130 vlineto
          -353 -350 254 callsubr
          -291 -209 100 vlineto
          207 callsubr
          -20 -17 -3 -6 -15 vhcurveto
          -680 -35 hlineto
          endchar
        </CharString>
        <CharString name="dvB_DA">
          462 1092 -35 callsubr
          -1124 -35 922 272 callgsubr
          -112 -99 -45 -96 -38 hvcurveto
          79 -30 -73 69 -122 hhcurveto
          -46 callsubr
          111 78 60 83 33 hvcurveto
          -84 31 75 -51 103 hhcurveto
          164 callgsubr
          hlineto
          -604 118 callsubr
          -2 413 -87 callgsubr
          endchar
        </CharString>
        <CharString name="dvB_DHA">
          529 197 callgsubr
          835 564 rmoveto
          35 -192 -373 vlineto
          21 callsubr
          -21 353 callsubr
          vhcurveto
          -655 -35 597 hlineto
          64 callsubr
          -55 -6 -56 -40 -12 -69 rrcurveto
          -1 hlineto
          -5 -34 -14 -34 -23 -29 -308 287 rcurveline
          35 38 52 19 56 hhcurveto
          29 24 -4 -7 22 hvcurveto
          31 vlineto
          7 -23 -27 4 -27 hhcurveto
          -135 -107 -92 -149 -148 113 -86 132 98 73 49 72 37 hvcurveto
          -80 23 82 -41 100 hhcurveto
          109 86 56 87 37 hvcurveto
          -253 0 callgsubr
        </CharString>
        <CharString name="dvB_DH_VA">
          979 197 callgsubr
          651 221 -4 callsubr
          -655 -35 597 hlineto
          64 callsubr
          -55 -6 -56 -40 -12 -69 rrcurveto
          -1 hlineto
          -5 -34 -14 -34 -23 -29 -308 287 rcurveline
          35 38 52 19 56 hhcurveto
          29 24 -4 -7 22 hvcurveto
          31 vlineto
          7 -23 -27 4 -27 hhcurveto
          -135 -107 -92 -149 -148 113 -86 132 98 73 49 72 37 hvcurveto
          -81 23 83 -41 106 hhcurveto
          129 81 58 109 32 hvcurveto
          -63 callsubr
        </CharString>
        <CharString name="dvB_JA">
          669 326 141 rmoveto
          -112 -98 -94 callgsubr
          973 564 rmoveto
          35 -1331 -35 1140 -199 -273 -169 vlineto
          11 callsubr
          133 234 -470 40 705 vlineto
          -824 -151 -87 callgsubr
          endchar
        </CharString>
        <CharString name="dvB_JHA">
          685 326 141 rmoveto
          -112 -98 74 129 57 17 47 29 35 hvcurveto
          306 -285 rlineto
          -34 -32 -46 -23 -64 hhcurveto
          380 176 rmoveto
          -71 -65 27 76 89 85 17 70 hvcurveto
          179 179 219 -388 hlineto
          41 -317 115 callgsubr
          -1347 -35 897 -147 -153 vlineto
          -87 -95 -30 -107 hvcurveto
          -50 vlineto
          -52 -14 -58 -32 -45 vhcurveto
          -305 284 rlineto
          35 37 52 19 56 hhcurveto
          32 28 -6 -9 26 hvcurveto
          32 vlineto
          9 -26 -29 5 -32 hhcurveto
          -46 callsubr
          145 77 104 125 11 hvcurveto
          -36 30 53 -17 57 hhcurveto
          59 hlineto
          111 60 -51 -84 -63 -43 -58 -103 -118 -60 68 74 -12 hvcurveto
          -35 -245 38 176 hlineto
          -27 11 51 -78 133 hhcurveto
          121 55 69 81 73 -36 43 -48 22 hvcurveto
          241 -1 rlineto
          -285 vlineto
          endchar
        </CharString>
        <CharString name="dvB_J_YA">
          1127 324 554 -87 callgsubr
          2 -413 rmoveto
          -112 -98 -94 callgsubr
          1017 23 rmoveto
          -144 -84 99 164 hvcurveto
          3 0 5 6 vvcurveto
          130 callgsubr
          -120 vhcurveto
          414 541 rmoveto
          35 -1789 -35 1324 -82 vlineto
          -121 -85 -30 -113 vhcurveto
          -259 -135 hlineto
          11 callsubr
          101 201 vlineto
          -2 0 -2 -2 vvcurveto
          -184 94 -119 26 callsubr
        </CharString>
        <CharString name="dvB_JxA">
          680 1299 -35 callsubr
          -1331 -35 1140 -199 -273 -169 vlineto
          11 callsubr
          133 234 -470 40 705 vlineto
          -409 239 callgsubr
          -413 120 rmoveto
          -112 -98 -94 callgsubr
          -2 413 -87 callgsubr
          endchar
        </CharString>
        <CharString name="dvB_LA">
          749 1041 92 rmoveto
          254 callgsubr
          -1411 -35 1093 -152 vlineto
          -105 -8 -44 -83 -13 -71 rrcurveto
          42 callgsubr
          134 54 87 105 102 50 -84 -103 -115 -63 -88 -125 -10 -10 1 1 -11 vhcurveto
          -36 vlineto
          -1 12 11 -1 11 hhcurveto
          -715 49 rmoveto
          -112 -98 -94 callgsubr
          -2 413 -87 callgsubr
          endchar
        </CharString>
        <CharString name="dvB_L_YA">
          1270 326 141 rmoveto
          -112 -98 -94 callgsubr
          1160 23 315 callgsubr
          86 140 257 callsubr
          89 346 callgsubr
          104 234 8 callsubr
          -1932 -35 1466 -100 vlineto
          -134 -79 -37 -107 -2 vhcurveto
          62 -17 -55 60 -93 hhcurveto
          -121 -50 -87 -76 -13 hvcurveto
          42 callgsubr
          137 56 84 108 90 42 -65 -47 7 vhcurveto
          -4 0 -5 -4 vvcurveto
          -160 94 -104 -9 callgsubr
          40 705 vlineto
          -1424 -151 -87 callgsubr
          endchar
        </CharString>
        <CharString name="dvB_NA">
          633 569 118 callgsubr
          -1295 -35 1104 226 callgsubr
          -78 -62 -33 -58 -32 hvcurveto
          87 -25 -74 80 -132 hhcurveto
          -46 callsubr
          111 77 59 82 33 hvcurveto
          -65 28 64 -41 84 hhcurveto
          71 callgsubr
          -786 118 callsubr
          -2 413 -87 callgsubr
          endchar
        </CharString>
        <CharString name="dvB_R">
          -168 566 -35 callsubr
          -598 -35 vlineto
          597 -358 rmoveto
          108 -74 130 -168 -46 callsubr
          24 22 3 5 21 vhcurveto
          -185 -167 rlineto
          46 hlineto
          228 211 rlineto
          54 45 30 67 73 vvcurveto
          -241 207 -87 callgsubr
          2 -413 rmoveto
          -112 -98 -94 callgsubr
          endchar
        </CharString>
        <CharString name="dvB_RA">
          91 483 170 rmoveto
          21 21 16 23 11 23 rrcurveto
          -237 39 107 callgsubr
          -754 -35 563 77 callsubr
          -133 -106 -92 -147 323 callsubr
          hvcurveto
          -186 -167 rlineto
          47 hlineto
          81 603 -22 callgsubr
        </CharString>
        <CharString name="dvB_SA">
          653 324 554 -87 callgsubr
          2 -413 rmoveto
          -112 -98 -94 callgsubr
          536 459 -3 callgsubr
          -1315 -35 855 -105 vlineto
          -59 callsubr
          -78 hlineto
          90 -24 -74 85 -136 hhcurveto
          -46 callsubr
          99 72 47 68 38 hvcurveto
          -19 vlineto
          -126 60 -89 123 114 70 77 120 vhcurveto
          13 -39 -12 vlineto
          155 callgsubr
        </CharString>
        <CharString name="dvB_SHA">
          621 915 191 rmoveto
          12 -40 115 callsubr
          -107 -49 44 callgsubr
          134 101 71 136 129 -79 74 -118 -22 353 callsubr
          hvcurveto
          -703 -35 708 hlineto
          266 callgsubr
          -119 hlineto
          102 -11 -75 109 -154 hhcurveto
          -46 callsubr
          99 72 47 68 38 hvcurveto
          -16 vlineto
          -130 65 -88 130 114 72 78 122 vhcurveto
          -591 363 -87 callgsubr
          2 -413 rmoveto
          -112 -98 -94 callgsubr
          774 -141 94 callgsubr
        </CharString>
        <CharString name="dvB_TA">
          531 1162 -35 callsubr
          -1194 -35 1002 271 callsubr
          -113 -89 -34 -73 -47 hvcurveto
          95 -18 -75 96 -144 hhcurveto
          -46 callsubr
          92 69 41 61 40 hvcurveto
          -136 15 96 -74 147 hhcurveto
          -76 callsubr
          159 153 callgsubr
          -684 118 callsubr
          -2 413 -87 callgsubr
          endchar
        </CharString>
        <CharString name="dvB_VA">
          533 770 40 callsubr
          393 591 rmoveto
          -1195 -35 1004 -257 hlineto
          10 callgsubr
          -99 -83 -53 -87 -33 hvcurveto
          78 -31 -73 68 -121 hhcurveto
          -46 callsubr
          112 78 62 83 33 hvcurveto
          -89 33 81 -51 101 hhcurveto
          111 69 59 72 29 hvcurveto
          -246 133 callgsubr
          vlineto
          -839 -151 -87 callgsubr
          2 -413 rmoveto
          -112 -98 -94 callgsubr
          endchar
        </CharString>
        <CharString name="dvB_YA">
          573 1210 -35 callsubr
          -1242 -35 777 -82 vlineto
          39 callsubr
          -5 hlineto
          74 -33 -71 61 -116 hhcurveto
          -46 callsubr
          120 81 70 93 28 hvcurveto
          1 callsubr
        </CharString>
        <CharString name="dvC">
          -135 408 502 238 callgsubr
          138 97 106 124 -4 vhcurveto
          -34 hlineto
          67 callsubr
          221 203 rmoveto
          35 -630 -35 vlineto
          endchar
        </CharString>
        <CharString name="dvCA">
          117 callsubr
          -74 269 callsubr
          0 callgsubr
        </CharString>
        <CharString name="dvCH">
          215 845 705 54 callgsubr
          62 callsubr
        </CharString>
        <CharString name="dvCHA">
          215 845 705 54 callgsubr
          186 callgsubr
          -213 -638 -83 callgsubr
          endchar
        </CharString>
        <CharString name="dvCH_R">
          59 callsubr
          62 callsubr
        </CharString>
        <CharString name="dvCH_RA">
          59 callsubr
          186 callgsubr
          -213 -638 -83 callgsubr
          endchar
        </CharString>
        <CharString name="dvCH_R_YA">
          -25 callgsubr
          -140 125 -76 181 -2 vhcurveto
          -162 -162 rlineto
          46 hlineto
          23 callsubr
          -166 167 148 21 109 85 29 135 rlinecurve
          228 callsubr
        </CharString>
        <CharString name="dvCH_YA">
          -25 callgsubr
          -142 129 -76 186 185 142 90 156 33 vhcurveto
          228 callsubr
        </CharString>
        <CharString name="dvC_CA">
          542 364 145 rmoveto
          -96 -84 176 callsubr
          hvcurveto
          306 hlineto
          -69 -28 -42 -58 -9 -75 rrcurveto
          -102 -21 -57 -94 -121 hhcurveto
          809 560 rmoveto
          35 -1205 -35 1013 229 callsubr
          -776 -34 217 hlineto
          -76 -32 -45 -68 -87 vvcurveto
          -132 98 -74 117 110 64 67 88 33 vhcurveto
          -99 23 87 -55 102 hhcurveto
          93 75 51 73 34 hvcurveto
          -234 0 callgsubr
        </CharString>
        <CharString name="dvC_CHA">
          688 869 67 -83 callgsubr
          449 638 rmoveto
          35 -1350 -35 613 -125 vlineto
          -104 58 -45 70 -9 vhcurveto
          -2 vlineto
          -75 -9 -65 -46 -13 -84 rrcurveto
          -72 -18 -74 -64 -95 hhcurveto
          156 callgsubr
          hvcurveto
          65 callgsubr
          -132 102 -74 119 vhcurveto
          83 1 68 40 39 62 rrcurveto
          -118 21 122 -63 169 hhcurveto
          214 155 275 callgsubr
        </CharString>
        <CharString name="dvC_CH_VA">
          688 858 -286 rmoveto
          -91 -70 57 100 96 64 60 111 4 hvcurveto
          0 vlineto
          53 53 8 17 47 hvcurveto
          -182 vlineto
          -71 -50 -89 -117 vhcurveto
          11 353 -83 callgsubr
          449 638 rmoveto
          35 -1350 -35 613 -125 vlineto
          -104 58 -45 70 -9 vhcurveto
          -2 vlineto
          -75 -9 -65 -46 -13 -84 rrcurveto
          -72 -18 -74 -64 -95 hhcurveto
          156 callgsubr
          hvcurveto
          65 callgsubr
          -132 102 -74 119 vhcurveto
          83 1 68 40 39 62 17 -95 82 -59 119 -20 rrcurveto
          -67 -24 -49 -61 -86 vvcurveto
          -115 83 -71 111 91 57 46 57 25 vhcurveto
          -168 37 455 vlineto
          107 50 68 97 133 vvcurveto
          186 callgsubr
          endchar
        </CharString>
        <CharString name="dvC_MA">
          637 1075 448 59 callgsubr
          -376 -546 -95 callgsubr
          568 546 rmoveto
          35 -1299 -35 854 292 callsubr
          -94 -68 -51 -87 -11 hvcurveto
          0 vlineto
          -90 -15 -59 -75 -106 hhcurveto
          -94 -78 176 callsubr
          hvcurveto
          65 callgsubr
          -132 93 -74 115 94 64 50 72 32 vhcurveto
          -66 20 57 -41 79 127 callsubr
        </CharString>
        <CharString name="dvC_NA">
          642 575 118 callgsubr
          -1301 -35 1110 226 callgsubr
          -114 301 callsubr
          hvcurveto
          -3 352 callsubr
          -8 -89 -64 -80 -106 -1 rrcurveto
          -93 -83 62 111 292 callgsubr
          hvcurveto
          65 callgsubr
          -130 98 -73 115 98 70 57 81 27 vhcurveto
          -64 27 64 -41 84 5 callsubr
        </CharString>
        <CharString name="dvC_R">
          -135 598 -35 callsubr
          -630 -35 vlineto
          440 -203 238 callgsubr
          20 19 2 4 18 vhcurveto
          -178 -161 rlineto
          47 hlineto
          221 204 54 42 32 67 -2 72 rlinecurve
          -34 hlineto
          67 callsubr
          endchar
        </CharString>
        <CharString name="dvC_RA">
          117 callsubr
          -73 118 260 callgsubr
          -179 -162 rlineto
          47 hlineto
          227 208 24 20 19 25 13 28 rlinecurve
          -235 0 callgsubr
        </CharString>
        <CharString name="dvC_YA">
          617 833 164 rmoveto
          -88 callgsubr
          -1279 -35 814 -82 vlineto
          -29 callsubr
          -14 -12 vvcurveto
          0 vlineto
          -1 vlineto
          0 vlineto
          -1 vlineto
          -195 2 -98 -70 -106 hhcurveto
          -99 -81 176 callsubr
          hvcurveto
          65 callgsubr
          -132 95 -74 122 100 91 54 129 31 vhcurveto
          -102 35 83 -61 125 35 callgsubr
        </CharString>
        <CharString name="dvCandrabindu">
          -598 41 25 callgsubr
        </CharString>
        <CharString name="dvD">
          10 641 -284 -51 callsubr
          41 989 rmoveto
          35 -672 -27 callgsubr
          hlineto
          endchar
        </CharString>
        <CharString name="dvDA">
          10 640 705 rmoveto
          35 -672 -27 callgsubr
          hlineto
          endchar
        </CharString>
        <CharString name="dvDA_mvR">
          -21 543 230 rmoveto
          -35 hlineto
          -122 -90 -56 -110 -103 -74 46 86 87 75 31 75 vhcurveto
          66 33 -65 hlineto
          -89 -62 42 65 79 69 26 77 hvcurveto
          178 158 155 35 -642 -35 449 -127 -150 hlineto
          -95 -81 -36 -97 -81 73 -40 57 -5 hvcurveto
          -2 vlineto
          -45 -3 -86 -33 -99 vvcurveto
          -106 88 -57 128 136 101 65 146 vhcurveto
          endchar
        </CharString>
        <CharString name="dvDD">
          -19 460 -290 -51 callsubr
          193 995 -20 callgsubr
          endchar
        </CharString>
        <CharString name="dvDDA">
          -19 611 705 -20 callgsubr
          endchar
        </CharString>
        <CharString name="dvDDH">
          35 492 -261 -51 callsubr
          215 966 rmoveto
          35 -697 -35 461 -78 callgsubr
          83 169 hlineto
          endchar
        </CharString>
        <CharString name="dvDDHA">
          35 665 -35 callsubr
          -697 -35 461 -78 callgsubr
          83 169 hlineto
          endchar
        </CharString>
        <CharString name="dvDDH_DDHA">
          71 701 -35 callsubr
          -733 -35 469 -121 -84 vlineto
          -148 -115 -74 -156 -113 69 -76 108 -28 hvcurveto
          -103 -26 -74 -70 -121 vvcurveto
          -147 116 -82 165 146 84 64 92 82 -55 58 -102 -89 -60 -44 -75 -7 1 -11 1 -7 vhcurveto
          31 hlineto
          -1 6 -1 8 7 vvcurveto
          58 48 35 69 80 43 -47 -63 -73 -74 -53 -120 -148 -96 73 126 139 112 65 132 vhcurveto
          0 2 vlineto
          141 86 64 92 82 -54 58 -103 -89 -60 -43 -75 -8 1 -10 1 -8 hvcurveto
          31 hlineto
          -1 6 -1 9 6 vvcurveto
          58 48 35 69 80 43 -47 -63 -73 -74 -53 -120 302 callsubr
          113 151 hlineto
          endchar
        </CharString>
        <CharString name="dvDDH_R">
          35 498 -336 -51 callsubr
          209 1041 10 callsubr
        </CharString>
        <CharString name="dvDDH_RA">
          35 665 705 10 callsubr
        </CharString>
        <CharString name="dvDDH_VA">
          33 663 -35 callsubr
          -695 -35 460 -121 -75 vlineto
          -148 -115 -74 -156 -112 70 -77 102 -27 hvcurveto
          -78 -16 -62 -57 -96 vvcurveto
          -106 78 -65 100 84 54 45 56 24 vhcurveto
          -170 35 420 vlineto
          56 28 31 48 59 vvcurveto
          80 -54 56 -90 -87 -58 -43 -75 -8 1 -10 1 -8 vhcurveto
          31 hlineto
          -1 6 -1 9 6 vvcurveto
          58 46 35 68 66 43 -45 -62 -74 -66 -55 -111 302 callsubr
          104 151 hlineto
          -158 -873 rmoveto
          -81 -65 50 90 100 69 52 141 34 31 4 8 26 hvcurveto
          -145 vlineto
          -72 -45 -87 -110 vhcurveto
          endchar
        </CharString>
        <CharString name="dvDDH_YA">
          640 1119 86 callsubr
          -1302 -35 461 -78 callgsubr
          317 hlineto
          67 89 -7 -93 -69 -62 -23 -98 4 hvcurveto
          -17 hlineto
          -1 -11 -1 -12 -11 vvcurveto
          -137 67 -95 145 99 60 50 74 29 vhcurveto
          -206 vlineto
          -182 115 rmoveto
          -119 -61 75 116 hvcurveto
          6 0 6 5 vvcurveto
          105 -2 75 31 86 vvcurveto
          107 -92 22 -95 vhcurveto
          -242 138 611 -373 hlineto
          -126 -61 -91 -121 vhcurveto
          endchar
        </CharString>
        <CharString name="dvDDHxA">
          35 665 -35 callsubr
          -697 -35 461 -78 callgsubr
          83 169 hlineto
          -91 -815 rmoveto
          -103 callsubr
          endchar
        </CharString>
        <CharString name="dvDD_DDA">
          -2 628 -35 callsubr
          -660 -35 449 -122 -132 vlineto
          -88 -81 -27 -93 -91 86 -19 105 96 80 -16 -90 -64 -47 -39 -100 -135 -62 60 73 -1 hvcurveto
          -39 hlineto
          -72 54 -54 73 -20 vhcurveto
          -64 -11 -46 -33 -64 vvcurveto
          -92 86 -18 107 99 75 -17 -89 -64 -47 -39 -100 -135 -62 60 74 -1 vhcurveto
          -39 hlineto
          -105 1 98 -60 138 hhcurveto
          124 62 52 82 108 -85 28 -123 -86 -74 8 72 66 58 24 122 125 63 51 83 109 -90 26 -119 -85 -72 8 73 76 74 14 61 hvcurveto
          165 152 hlineto
          endchar
        </CharString>
        <CharString name="dvDD_DDHA">
          11 608 -35 callsubr
          -627 -35 433 -122 -133 vlineto
          -87 -82 -27 -93 -91 86 -19 106 96 80 -16 -90 -64 -47 -39 -101 -135 -62 60 73 hvcurveto
          -39 hlineto
          -78 63 -57 82 -15 vhcurveto
          -101 -23 -73 -69 -122 vvcurveto
          -142 108 -79 154 134 78 65 92 81 -52 59 -96 -85 -56 -44 -75 -8 1 -10 1 -7 vhcurveto
          31 hlineto
          -1 5 -1 9 6 vvcurveto
          58 44 35 65 74 40 -46 -64 -73 -68 -53 -109 -137 -89 70 120 136 106 64 125 1 vhcurveto
          124 2 60 50 82 vvcurveto
          109 -90 26 -119 -84 -73 8 73 76 74 14 62 vhcurveto
          164 152 hlineto
          endchar
        </CharString>
        <CharString name="dvDD_R">
          -19 448 -364 -51 callsubr
          205 1069 19 callsubr
        </CharString>
        <CharString name="dvDD_RA">
          -19 611 705 19 callsubr
        </CharString>
        <CharString name="dvDD_VA">
          11 287 -170 rmoveto
          -82 -65 50 87 96 71 48 122 42 35 6 11 28 hvcurveto
          -159 vlineto
          -61 -45 -78 -106 vhcurveto
          354 875 rmoveto
          35 -673 -35 446 -122 -133 vlineto
          -87 -82 -27 -93 -95 92 -17 98 98 80 -15 -91 -64 -47 -40 -101 -135 -62 61 73 hvcurveto
          -39 hlineto
          -76 59 -58 80 -18 vhcurveto
          -72 -16 -59 -53 -89 vvcurveto
          -103 77 -64 100 73 57 30 56 27 vhcurveto
          -155 35 419 vlineto
          30 23 15 33 41 vvcurveto
          107 -88 28 -117 1 vhcurveto
          -86 -75 7 74 77 75 14 61 hvcurveto
          164 152 hlineto
          endchar
        </CharString>
        <CharString name="dvDD_YA">
          556 1035 86 callsubr
          -1218 -35 449 -148 -139 91 callgsubr
          320 hlineto
          69 94 -8 -92 -69 -62 -19 -97 hvcurveto
          -18 hlineto
          -1 -11 -1 -11 -11 vvcurveto
          -132 67 -91 146 98 60 53 78 29 vhcurveto
          -213 vlineto
          -182 115 rmoveto
          -119 -61 71 110 6 0 7 1 6 hvcurveto
          107 72 29 84 107 -97 22 -99 hvcurveto
          -161 148 539 -356 hlineto
          -135 -61 -99 -121 vhcurveto
          endchar
        </CharString>
        <CharString name="dvDDxA">
          -19 611 705 -20 callgsubr
          -108 -844 rmoveto
          -103 callsubr
          endchar
        </CharString>
        <CharString name="dvDH">
          -169 578 333 rmoveto
          -36 hlineto
          -111 -89 -77 -135 -96 -83 42 96 71 49 57 109 vhcurveto
          7 callsubr
          163 100 93 131 vhcurveto
          endchar
        </CharString>
        <CharString name="dvDHA">
          102 734 -35 callsubr
          -192 -373 vlineto
          21 callsubr
          -97 -64 -68 -90 -8 callsubr
          -113 93 -57 119 109 86 56 87 37 vhcurveto
          -253 0 callgsubr
        </CharString>
        <CharString name="dvDH_MA">
          641 1271 -35 callsubr
          -728 -35 283 -257 -112 vlineto
          -100 -72 -58 -98 -3 hvcurveto
          -1 -4 rlineto
          -80 -12 -76 -63 -132 hhcurveto
          -96 -45 callsubr
          93 -57 122 124 79 47 68 33 vhcurveto
          -62 22 56 -38 77 hhcurveto
          100 61 66 129 hvcurveto
          95 214 125 callsubr
          -417 -546 161 callsubr
          -101 -46 -57 -77 vhcurveto
          376 289 309 callsubr
          endchar
        </CharString>
        <CharString name="dvDH_NA">
          637 1282 -35 callsubr
          -739 -35 547 320 callgsubr
          -120 -14 -86 -60 -128 hhcurveto
          -100 -45 callsubr
          94 -57 125 125 87 54 97 32 vhcurveto
          -70 25 67 -45 88 210 callsubr
          64 59 90 87 62 -60 -86 -86 -62 342 callsubr
          85 vhcurveto
          endchar
        </CharString>
        <CharString name="dvDH_N_YA">
          1118 1747 -35 callsubr
          -1198 -35 733 204 callsubr
          -343 hlineto
          -108 -77 -63 -102 -8 hvcurveto
          -105 -17 -77 -53 -133 hhcurveto
          -100 -45 callsubr
          94 -57 125 123 80 45 79 35 vhcurveto
          -78 21 69 -50 94 hhcurveto
          345 callsubr
          -37 353 callgsubr
          226 hlineto
          216 callgsubr
          -182 94 -118 167 122 77 64 67 30 vhcurveto
          -260 40 705 vlineto
          -1010 -420 rmoveto
          88 63 60 -89 callsubr
          -61 60 85 vhcurveto
          747 -121 rmoveto
          -144 -84 100 162 hvcurveto
          3 0 3 3 vvcurveto
          128 2 89 46 135 vvcurveto
          87 234 -7 callsubr
          -102 -81 -121 vhcurveto
          endchar
        </CharString>
        <CharString name="dvDH_R">
          -169 578 333 rmoveto
          -36 hlineto
          -111 -89 -77 -135 -96 -83 42 96 71 49 57 109 vhcurveto
          7 callsubr
          33 30 4 7 28 vhcurveto
          -198 -180 rlineto
          48 hlineto
          240 223 rlineto
          53 40 29 59 71 vvcurveto
          endchar
        </CharString>
        <CharString name="dvDH_RA">
          102 542 hmoveto
          258 callgsubr
          -373 hlineto
          21 callsubr
          -97 -64 -68 -90 -8 callsubr
          180 callsubr
        </CharString>
        <CharString name="dvDH_VA">
          503 550 362 rmoveto
          0 vlineto
          -1 -9 rlineto
          -147 -17 -84 -61 -126 hhcurveto
          -100 -83 42 96 71 49 57 109 hvcurveto
          54 34 -55 hlineto
          -108 -59 57 85 71 46 56 79 80 43 -56 -64 -5 0 -8 -1 -14 hvcurveto
          34 hlineto
          1 12 0 11 7 vvcurveto
          88 -59 64 -99 -97 -64 -68 -90 -99 65 -51 67 -13 vhcurveto
          -3 vlineto
          -63 -7 -63 -50 -88 vvcurveto
          28 callsubr
        </CharString>
        <CharString name="dvDH_YA">
          586 1216 -35 callsubr
          -673 -35 207 -82 vlineto
          -139 -84 -34 -113 234 callgsubr
          -6 vlineto
          0 vlineto
          -153 4 -81 -107 -139 hhcurveto
          -96 -45 callsubr
          94 -57 123 125 82 72 112 30 vhcurveto
          -102 35 84 -62 124 hhcurveto
          123 76 283 callsubr
          vlineto
          -262 -541 rmoveto
          -144 301 callgsubr
          218 callsubr
          200 callsubr
          -102 -81 -120 vhcurveto
          endchar
        </CharString>
        <CharString name="dvD_BA">
          149 callgsubr
          78 60 39 64 27 vhcurveto
          128 callsubr
          rlineto
          -41 -24 -44 -33 -66 168 callsubr
        </CharString>
        <CharString name="dvD_BHA">
          729 641 -284 -51 callsubr
          41 989 rmoveto
          35 -672 -27 callgsubr
          hlineto
          340 -546 rmoveto
          -73 -53 50 77 78 56 50 81 hvcurveto
          112 -97 hlineto
          -101 -47 -57 -76 vhcurveto
          161 160 rmoveto
          95 187 -414 41 705 151 35 -192 -292 -187 14 callsubr
        </CharString>
        <CharString name="dvD_B_RA">
          149 callgsubr
          289 callsubr
          -144 -130 rlineto
          45 hlineto
          177 163 24 17 18 23 12 28 rlinecurve
          128 callsubr
          -10 -18 -15 -17 -19 -13 rlinecurve
          -3 1 -9 -8 rlineto
          -12 -21 -26 -7 -31 168 callsubr
        </CharString>
        <CharString name="dvD_DA">
          -66 471 -37 rmoveto
          277 -35 vlineto
          -117 -72 -62 -108 -96 -63 45 88 69 47 49 97 vhcurveto
          102 32 -102 hlineto
          -101 -48 52 58 86 80 29 96 hvcurveto
          138 136 158 35 -609 -35 411 -106 hlineto
          1 -35 -36 0 -35 hhcurveto
          -115 -93 -35 -108 -75 54 -44 69 -9 hvcurveto
          -3 vlineto
          -67 -8 -53 -48 -80 vvcurveto
          -99 75 -63 115 106 60 52 54 21 vhcurveto
          -171 vlineto
          endchar
        </CharString>
        <CharString name="dvD_DHA">
          293 923 -35 callsubr
          -955 -35 752 92 callsubr
          -97 43 -73 74 -35 hvcurveto
          -104 -23 -78 -60 -92 hhcurveto
          267 callsubr
          69 48 64 119 -9 hvcurveto
          35 vlineto
          -144 11 -63 -78 -86 vvcurveto
          -94 64 -44 67 -13 vhcurveto
          76 callgsubr
        </CharString>
        <CharString name="dvD_GA">
          196 callsubr
          -144 vlineto
          -56 -21 -60 -80 -75 -25 60 52 vhcurveto
          30 -36 -30 vlineto
          -76 41 -70 95 101 38 71 80 vhcurveto
          141 vlineto
          75 63 38 51 28 hvcurveto
          -454 39 544 -36 vlineto
          -104 -93 -41 -72 -102 -64 174 callgsubr
          endchar
        </CharString>
        <CharString name="dvD_GHA">
          293 286 -24 rmoveto
          267 callsubr
          64 43 61 102 46 49 -14 -30 50 hvcurveto
          -31 -37 -18 -49 -61 vvcurveto
          -97 43 -73 74 -35 vhcurveto
          -104 -23 -78 -60 -92 hhcurveto
          637 729 rmoveto
          35 -955 -35 752 272 callgsubr
          -75 -70 -20 -43 -49 hvcurveto
          35 -52 -59 21 -59 hhcurveto
          -127 -55 -74 -80 -94 64 -44 67 -13 hvcurveto
          76 callgsubr
        </CharString>
        <CharString name="dvD_G_RA">
          196 callsubr
          -76 vlineto
          -56 -21 -60 -80 -75 -25 59 52 vhcurveto
          30 -36 -30 vlineto
          -76 41 -69 95 101 38 70 81 vhcurveto
          73 vlineto
          75 63 38 51 28 hvcurveto
          -205 vlineto
          -300 -301 rlineto
          44 hlineto
          258 261 rlineto
          -209 37 544 -36 vlineto
          -104 -93 -41 -72 -102 -64 174 callgsubr
          endchar
        </CharString>
        <CharString name="dvD_MA">
          191 175 21 rmoveto
          67 49 42 69 vhcurveto
          97 -77 hlineto
          -88 -41 -49 -66 -63 -45 42 63 vhcurveto
          253 143 rmoveto
          153 -162 vlineto
          -83 -62 36 74 85 61 31 82 hvcurveto
          152 162 212 -541 hlineto
          193 120 callgsubr
          -853 -35 408 -127 -115 vlineto
          -102 -79 -40 -111 -94 77 -50 105 hvcurveto
          128 -119 -95 hlineto
          -91 -66 -52 -91 -83 58 -56 87 89 56 59 115 hvcurveto
          74 200 -319 41 894 vlineto
          endchar
        </CharString>
        <CharString name="dvD_NA">
          762 641 -284 -51 callsubr
          98 609 76 callsubr
          -1423 -27 callgsubr
          722 264 callsubr
          hlineto
          -92 callgsubr
          247 -474 40 705 hlineto
          endchar
        </CharString>
        <CharString name="dvD_R">
          10 640 -284 -51 callsubr
          42 989 255 callgsubr
          202 callgsubr
          hvcurveto
          -39 callgsubr
        </CharString>
        <CharString name="dvD_RA">
          10 640 705 255 callgsubr
          202 callgsubr
          hvcurveto
          -39 callgsubr
        </CharString>
        <CharString name="dvD_VA">
          0 630 -35 callsubr
          -662 -35 458 -127 -102 vlineto
          -143 -96 -59 -128 -87 51 -64 81 -20 hvcurveto
          141 callsubr
          -162 -781 208 callgsubr
          endchar
        </CharString>
        <CharString name="dvD_YA">
          96 282 80 rmoveto
          -105 -77 46 83 87 70 30 91 hvcurveto
          70 33 -67 hlineto
          -89 -75 30 79 88 85 21 78 hvcurveto
          91 128 181 -368 hlineto
          -181 -105 -76 -148 vhcurveto
          444 625 rmoveto
          35 -733 -35 322 -106 vlineto
          1 -23 -23 0 -23 hhcurveto
          -89 -98 -29 -103 -94 85 -27 44 -4 hvcurveto
          -2 vlineto
          -44 -2 -84 -29 -104 vvcurveto
          -103 91 -55 125 131 92 51 109 36 vhcurveto
          -208 39 -27 callsubr
        </CharString>
        <CharString name="dvE">
          53 683 -35 callsubr
          -715 -35 146 -429 vlineto
          -153 72 -104 162 141 82 86 144 vhcurveto
          46 callsubr
          vlineto
          endchar
        </CharString>
        <CharString name="dvEcandra">
          53 683 -35 callsubr
          -715 -35 146 -429 vlineto
          -153 72 -104 162 141 82 86 144 vhcurveto
          46 callsubr
          vlineto
          -45 299 25 callsubr
        </CharString>
        <CharString name="dvEight">
          15 callgsubr
        </CharString>
        <CharString name="dvEyelash">
          -339 334 439 rmoveto
          -3 -17 -20 -4 -34 hhcurveto
          -90 -103 36 115 -1 hvcurveto
          -38 hlineto
          -138 1 120 -46 105 hhcurveto
          37 35 6 7 17 hvcurveto
          -25 293 rmoveto
          35 -353 -35 vlineto
          endchar
        </CharString>
        <CharString name="dvEyelash_HA">
          135 667 53 -82 callgsubr
          -798 -35 610 152 callsubr
          -44 19 -31 27 -22 hvcurveto
          -5 -18 -21 -5 -26 hhcurveto
          -78 -88 37 112 hvcurveto
          -38 hlineto
          -134 1 105 -49 91 hhcurveto
          50 32 13 10 23 hvcurveto
          6 -2 6 -3 6 -2 rrcurveto
          102 callsubr
        </CharString>
        <CharString name="dvEyelash_YA">
          293 509 164 rmoveto
          -88 callgsubr
          -955 -35 490 -82 vlineto
          -138 -84 -34 -110 -1 vhcurveto
          -87 -107 35 115 hvcurveto
          -38 hlineto
          1 -128 107 -50 102 -5 rrcurveto
          -2 0 -2 -2 vvcurveto
          246 callsubr
          124 callgsubr
        </CharString>
        <CharString name="dvFive">
          61 callgsubr
        </CharString>
        <CharString name="dvFour">
          150 callgsubr
        </CharString>
        <CharString name="dvG">
          -157 473 -35 callsubr
          -505 -91 callsubr
          vlineto
          endchar
        </CharString>
        <CharString name="dvGA">
          107 586 86 callsubr
          -769 -91 callsubr
          208 -705 vlineto
          endchar
        </CharString>
        <CharString name="dvGH">
          -154 592 -35 callsubr
          -624 23 callgsubr
          -121 94 -62 140 157 108 107 144 vhcurveto
          171 callgsubr
        </CharString>
        <CharString name="dvGHA">
          119 327 90 callgsubr
          92 hvcurveto
          92 172 callgsubr
          -781 23 callgsubr
          -121 94 -62 134 111 88 56 88 38 vhcurveto
          -256 68 callgsubr
        </CharString>
        <CharString name="dvGH_MA">
          621 1059 448 59 callgsubr
          -376 -546 -95 callgsubr
          -375 -12 332 callsubr
          62 34 -60 259 callsubr
          654 292 callsubr
          -88 -66 -46 -78 -16 hvcurveto
          -7 -23 rlineto
          -112 -29 -71 -42 -108 hhcurveto
          943 558 rmoveto
          35 -1283 23 callgsubr
          -121 88 -62 122 108 75 39 91 38 vhcurveto
          -72 17 59 -46 83 127 callsubr
        </CharString>
        <CharString name="dvGH_NA">
          623 559 325 -102 callsubr
          -251 -178 332 callsubr
          46 34 -44 259 callsubr
          910 226 callgsubr
          -102 -75 -57 -93 -14 hvcurveto
          -1 1 -5 -22 rlineto
          -141 -33 -60 -50 -118 hhcurveto
          945 558 rmoveto
          35 -1285 23 callgsubr
          -121 88 -62 121 112 79 43 119 36 vhcurveto
          -78 20 69 -51 94 5 callsubr
        </CharString>
        <CharString name="dvGH_R">
          -154 592 -35 callsubr
          -624 23 callgsubr
          -121 94 -62 140 29 27 4 6 25 vhcurveto
          -198 -178 rlineto
          47 hlineto
          246 226 rlineto
          56 45 33 68 80 vvcurveto
          171 callgsubr
        </CharString>
        <CharString name="dvGH_RA">
          119 327 90 callgsubr
          93 hvcurveto
          91 172 callgsubr
          -781 23 callgsubr
          -120 94 -61 134 27 26 3 7 24 vhcurveto
          -198 -180 rlineto
          47 hlineto
          256 235 rlineto
          0 vlineto
          23 21 19 26 13 30 rrcurveto
          -256 68 callgsubr
        </CharString>
        <CharString name="dvGH_YA">
          606 327 90 callgsubr
          92 hvcurveto
          92 618 -57 callsubr
          -20 1 -19 3 -18 vhcurveto
          -123 -5 -99 -84 -127 hhcurveto
          494 17 rmoveto
          -88 callgsubr
          -1267 23 callgsubr
          -121 94 -62 140 124 93 66 99 34 vhcurveto
          -93 37 82 -55 118 35 callgsubr
        </CharString>
        <CharString name="dvG_BA">
          504 982 hmoveto
          107 callgsubr
          -1166 -91 callsubr
          606 77 callsubr
          -133 -106 -92 -147 -146 110 -89 132 69 callsubr
        </CharString>
        <CharString name="dvG_BHA">
          567 656 159 rmoveto
          -72 -54 74 callsubr
          81 hvcurveto
          111 -97 hlineto
          -101 -47 -57 -76 vhcurveto
          162 160 210 callgsubr
          -21 -18 -3 -6 -16 vhcurveto
          -641 313 callgsubr
          hlineto
          -93 callsubr
          285 vlineto
          5 13 15 234 callsubr
          -112 vlineto
          -102 -73 -61 -101 -97 65 -65 100 100 61 66 129 hvcurveto
          endchar
        </CharString>
        <CharString name="dvG_BH_YA">
          1021 656 159 49 callsubr
          -640 313 callgsubr
          hlineto
          -93 callsubr
          217 vlineto
          263 callgsubr
          -14 2 -15 2 -14 vhcurveto
          40 hlineto
          -3 15 -1 14 13 vvcurveto
          62 27 41 42 17 vhcurveto
          1 0 hlineto
          5 13 14 3 16 hhcurveto
          79 35 -62 -98 hvcurveto
          -105 225 callgsubr
          -61 -101 -97 66 157 callgsubr
          420 -155 -2 callsubr
          endchar
        </CharString>
        <CharString name="dvG_DA">
          422 1052 -35 callsubr
          -1084 -91 callsubr
          513 -22 callsubr
          hlineto
          endchar
        </CharString>
        <CharString name="dvG_DHA">
          511 990 86 callsubr
          -192 -373 vlineto
          21 callsubr
          -21 353 callsubr
          vhcurveto
          -634 313 callgsubr
          hlineto
          -93 callsubr
          207 vlineto
          -29 -28 -16 -40 -46 vvcurveto
          -8 callsubr
          -113 93 -57 119 109 86 56 87 37 vhcurveto
          -253 vlineto
          endchar
        </CharString>
        <CharString name="dvG_DH_VA">
          958 957 362 -4 callsubr
          -634 313 callgsubr
          hlineto
          -93 callsubr
          207 vlineto
          -29 -28 -16 -40 -46 vvcurveto
          -99 65 -51 67 -13 vhcurveto
          -3 vlineto
          -63 -7 -63 -50 -88 vvcurveto
          28 callsubr
        </CharString>
        <CharString name="dvG_DH_YA">
          993 1209 164 -4 callgsubr
          -634 313 callgsubr
          hlineto
          -93 callsubr
          207 vlineto
          -29 -28 -16 -40 -46 vvcurveto
          -99 65 -51 67 -13 vhcurveto
          -3 vlineto
          -63 -7 -63 -50 -88 vvcurveto
          188 callsubr
          vlineto
          endchar
        </CharString>
        <CharString name="dvG_GA">
          527 1006 86 callsubr
          -1189 -91 callsubr
          379 -85 callsubr
          208 -705 vlineto
          endchar
        </CharString>
        <CharString name="dvG_GHA">
          520 727 90 callgsubr
          92 hvcurveto
          92 172 callgsubr
          -1181 -91 callsubr
          175 -93 vlineto
          -105 59 -44 69 -9 vhcurveto
          -2 vlineto
          -78 -9 -69 -55 -93 vvcurveto
          -121 94 -62 134 111 88 56 88 38 vhcurveto
          -256 68 callgsubr
        </CharString>
        <CharString name="dvG_JA">
          634 1264 -35 callsubr
          -1296 -91 callsubr
          735 -199 -273 -169 vlineto
          -89 callgsubr
          233 -470 0 callgsubr
        </CharString>
        <CharString name="dvG_LA">
          712 1004 92 rmoveto
          -55 callgsubr
          -1374 -91 callsubr
          688 -152 vlineto
          -106 -8 -44 -83 -12 -71 rrcurveto
          -3 hlineto
          74 -12 -48 89 -111 hhcurveto
          -124 -73 -90 -133 -135 76 -104 150 -81 callgsubr
          endchar
        </CharString>
        <CharString name="dvG_MA">
          583 1021 448 59 callgsubr
          -376 -546 -95 callgsubr
          568 546 rmoveto
          35 -1245 -91 callsubr
          431 189 callsubr
        </CharString>
        <CharString name="dvG_NA">
          593 529 118 callgsubr
          -1255 -91 callsubr
          695 226 callgsubr
          -92 callgsubr
          247 -474 40 705 hlineto
          endchar
        </CharString>
        <CharString name="dvG_NNA">
          658 693 241 rmoveto
          -57 callgsubr
          595 346 callsubr
          -1320 -91 callsubr
          183 198 callgsubr
        </CharString>
        <CharString name="dvG_N_YA">
          1060 528 285 rmoveto
          -39 callsubr
          -1722 -91 callsubr
          888 204 callsubr
          -343 84 callsubr
          45 callsubr
        </CharString>
        <CharString name="dvG_R">
          -157 552 341 rmoveto
          -362 -361 rlineto
          48 hlineto
          314 316 rlineto
          409 vmoveto
          35 -584 -35 328 -253 vlineto
          -56 -96 callgsubr
          251 vlineto
          endchar
        </CharString>
        <CharString name="dvG_RA">
          88 callgsubr
          endchar
        </CharString>
        <CharString name="dvG_R_YA">
          543 759 164 rmoveto
          -88 callgsubr
          -1205 -35 328 -253 vlineto
          -56 -96 callgsubr
          251 371 -57 callsubr
          -42 6 -38 11 -34 vhcurveto
          -319 -317 rlineto
          48 hlineto
          283 284 rlineto
          -85 40 79 -50 113 35 callgsubr
        </CharString>
        <CharString name="dvG_SA">
          615 824 600 -3 callgsubr
          -1277 -91 callsubr
          448 -105 vlineto
          135 callgsubr
          520 -378 40 705 vlineto
          endchar
        </CharString>
        <CharString name="dvG_VA">
          493 730 40 callsubr
          393 591 rmoveto
          -1155 313 callgsubr
          hlineto
          -93 callsubr
          595 149 callsubr
        </CharString>
        <CharString name="dvG_YA">
          543 759 164 rmoveto
          -88 callgsubr
          -1205 -91 callsubr
          371 13 callsubr
          endchar
        </CharString>
        <CharString name="dvGx">
          -157 473 -35 callsubr
          -505 -91 callsubr
          vlineto
          -99 -583 rmoveto
          -103 callsubr
          endchar
        </CharString>
        <CharString name="dvGxA">
          107 586 86 callsubr
          -769 -91 callsubr
          208 -705 vlineto
          -307 122 rmoveto
          -103 callsubr
          endchar
        </CharString>
        <CharString name="dvGx_R">
          -157 552 341 rmoveto
          -362 -361 rlineto
          48 hlineto
          314 316 rlineto
          409 vmoveto
          35 -584 -35 328 -253 vlineto
          -56 -96 callgsubr
          251 vlineto
          -213 -583 -19 callsubr
          endchar
        </CharString>
        <CharString name="dvGx_RA">
          88 callgsubr
          -422 122 -19 callsubr
          endchar
        </CharString>
        <CharString name="dvH">
          -11 520 53 -82 callgsubr
          -651 -35 463 152 callsubr
          290 callsubr
          hvcurveto
          2 callgsubr
          -78 -430 -51 callsubr
          endchar
        </CharString>
        <CharString name="dvHA">
          -11 520 53 -82 callgsubr
          -651 -35 463 152 callsubr
          290 callsubr
          hvcurveto
          102 callsubr
        </CharString>
        <CharString name="dvHA_mU">
          -11 343 -360 rmoveto
          122 74 56 92 94 -65 55 -136 -141 -73 82 97 96 61 84 122 128 46 -90 -74 hvcurveto
          39 hlineto
          91 -56 107 -156 225 callsubr
          vhcurveto
          134 callgsubr
          -116 85 -99 169 112 53 -41 -73 -73 -64 -41 -96 -109 -89 49 111 6 vhcurveto
          -36 hlineto
          -132 -6 103 -62 131 hhcurveto
          endchar
        </CharString>
        <CharString name="dvHA_mUU">
          -11 319 -353 rmoveto
          33 vlineto
          -2 -13 -13 -1 -11 hhcurveto
          -68 -48 43 65 71 53 47 90 110 83 -82 -141 hvcurveto
          -28 35 20 vlineto
          167 -93 98 -136 vhcurveto
          0 vlineto
          -122 -62 82 97 96 61 84 122 128 47 -90 -75 -1 hvcurveto
          39 hlineto
          92 1 -57 107 -156 hhcurveto
          -22 -20 -2 -4 -19 hvcurveto
          134 callgsubr
          -88 45 -78 90 -31 vhcurveto
          -55 -23 -33 -48 -64 vvcurveto
          -89 64 -52 85 14 12 1 2 13 vhcurveto
          endchar
        </CharString>
        <CharString name="dvHA_mvR">
          65 377 -174 rmoveto
          32 vlineto
          -166 -93 111 136 118 67 111 177 111 64 -48 -71 21 hvcurveto
          1 -24 -32 1 -48 hhcurveto
          -92 -44 -51 -65 -78 67 -38 69 38 25 5 6 18 hvcurveto
          29 vlineto
          -8 -24 -26 -3 -25 hhcurveto
          -57 -53 27 60 50 34 40 71 hvcurveto
          137 hlineto
          97 -13 -77 76 -140 253 callsubr
          296 176 128 35 -727 -35 563 -145 -268 266 callsubr
          -151 102 -130 192 1 vhcurveto
          endchar
        </CharString>
        <CharString name="dvH_LA">
          93 370 -172 rmoveto
          31 vlineto
          -161 -91 111 135 118 67 112 177 110 66 -54 -68 20 hvcurveto
          -52 -8 -23 -41 -6 -36 rrcurveto
          -2 hlineto
          40 -7 -27 46 -63 hhcurveto
          -69 -39 -48 -70 -73 42 -54 84 7 6 0 1 5 hvcurveto
          26 vlineto
          -1 -5 -6 0 -5 hhcurveto
          -65 -34 42 58 54 29 40 52 53 29 -44 -68 hvcurveto
          -6 28 6 vlineto
          69 30 43 55 50 28 -41 -53 -58 -33 -42 -65 -6 -6 0 1 -5 vhcurveto
          -26 vlineto
          -1 6 6 0 7 hhcurveto
          84 41 54 73 65 -34 47 -60 6 hvcurveto
          85 -21 -75 65 -130 253 callsubr
          305 176 147 35 -755 -35 572 -145 -277 266 callsubr
          -150 100 -129 187 1 vhcurveto
          endchar
        </CharString>
        <CharString name="dvH_MA">
          605 148 430 rmoveto
          74 63 25 70 vhcurveto
          189 176 320 276 callgsubr
          hlineto
          -86 -65 -44 -74 -18 hvcurveto
          -200 302 callgsubr
          519 -271 164 callsubr
          -1267 -35 463 300 callgsubr
          vlineto
          -90 -73 -37 -89 290 callsubr
          hvcurveto
          2 callgsubr
          -39 hlineto
          -54 -15 -56 -63 -103 hhcurveto
          -122 -61 82 97 96 61 85 123 hvcurveto
          195 hlineto
          -3 0 -4 -3 vvcurveto
          33 callgsubr
        </CharString>
        <CharString name="dvH_NA">
          618 148 430 rmoveto
          74 63 25 70 vhcurveto
          189 176 572 264 callsubr
          hlineto
          -112 -79 -69 -110 -3 hvcurveto
          -194 302 callgsubr
          391 -105 76 callsubr
          -1265 -35 463 300 callgsubr
          vlineto
          -90 -73 -37 -89 290 callsubr
          hvcurveto
          2 callgsubr
          -39 hlineto
          -54 -15 -56 -63 -103 hhcurveto
          -122 -61 82 97 96 61 85 123 hvcurveto
          196 hlineto
          -90 13 73 -61 102 5 callsubr
        </CharString>
        <CharString name="dvH_NNA">
          53 356 30 rmoveto
          -50 -30 41 56 hvcurveto
          199 vlineto
          5 23 27 3 30 hhcurveto
          31 26 -4 -6 24 hvcurveto
          -197 vlineto
          -56 -29 -41 -52 vhcurveto
          -21 -170 rmoveto
          -138 6 -78 104 135 vvcurveto
          94 32 84 97 35 vhcurveto
          -188 vlineto
          -72 39 -52 68 71 39 52 72 vhcurveto
          184 vlineto
          81 -36 32 -79 -92 vvcurveto
          -142 32 142 vlineto
          140 -71 117 -184 -50 -42 -8 -14 -36 vhcurveto
          -46 17 -34 31 49 vvcurveto
          67 58 23 66 vhcurveto
          273 176 145 35 -721 -35 540 -145 -245 hlineto
          -87 -68 -34 -82 -62 44 -37 43 -18 hvcurveto
          -77 -45 -35 -81 307 callsubr
        </CharString>
        <CharString name="dvH_R">
          11 callgsubr
          -76 -430 -51 callsubr
          endchar
        </CharString>
        <CharString name="dvH_RA">
          11 callgsubr
          endchar
        </CharString>
        <CharString name="dvH_VA">
          45 429 -6 rmoveto
          -64 -47 41 71 69 52 41 59 hvcurveto
          80 -1 34 -60 -51 vvcurveto
          -1 vlineto
          -48 -34 -61 -80 vhcurveto
          -94 -166 rmoveto
          -1 32 rlineto
          -137 6 -78 104 135 vvcurveto
          122 76 106 150 111 73 -71 -90 12 vhcurveto
          -19 39 -38 31 -60 -1 -76 -1 -62 -51 1 -83 rrcurveto
          -85 1 57 -52 79 hhcurveto
          62 40 33 41 18 hvcurveto
          -120 31 217 vlineto
          121 -82 103 -151 -43 -38 -8 -14 -33 vhcurveto
          -46 16 -35 31 50 vvcurveto
          67 58 23 66 vhcurveto
          239 176 145 35 -687 -35 506 -145 -211 hlineto
          -87 -68 -34 -82 -64 45 -36 44 -18 hvcurveto
          -73 -45 -41 -80 307 callsubr
        </CharString>
        <CharString name="dvH_YA">
          283 539 -71 rmoveto
          -101 -66 64 93 hvcurveto
          5 0 6 5 vvcurveto
          99 2 73 33 90 vvcurveto
          101 -91 36 -95 -48 -43 -9 -16 -36 vhcurveto
          -49 18 -36 32 50 vvcurveto
          67 59 23 65 vhcurveto
          226 176 228 -542 hlineto
          -134 -63 -100 -122 vhcurveto
          222 -72 rmoveto
          848 152 35 -945 -35 492 -145 -198 vlineto
          -86 -69 -34 -82 -64 47 -38 47 -19 hvcurveto
          -77 -49 -41 -87 -104 vvcurveto
          -165 105 -138 197 -6 vhcurveto
          32 vlineto
          -171 7 -94 118 151 vvcurveto
          138 80 112 158 70 79 -25 -82 -72 -58 -28 -99 vhcurveto
          -11 hlineto
          -1 -12 -1 -11 -12 vvcurveto
          -107 68 -85 128 97 64 53 81 30 vhcurveto
          -175 vlineto
          endchar
        </CharString>
        <CharString name="dvI">
          -17 627 -35 callsubr
          -672 57 callsubr
          178 hlineto
          82 callgsubr
          hlineto
          endchar
        </CharString>
        <CharString name="dvII">
          -17 142 106 rmoveto
          82 callgsubr
          165 35 -165 79 hlineto
          216 callsubr
          -80 -468 57 callsubr
          hlineto
          endchar
        </CharString>
        <CharString name="dvII_Anusvara">
          -17 142 106 rmoveto
          82 callgsubr
          165 35 -165 81 hlineto
          96 39 52 77 68 42 -50 -63 vhcurveto
          35 hlineto
          86 -55 60 -90 -100 -54 -67 -113 vhcurveto
          -82 -469 57 callsubr
          hlineto
          467 915 21 callgsubr
        </CharString>
        <CharString name="dvJ">
          -55 687 470 rmoveto
          36 -291 -169 vlineto
          -89 callgsubr
          vlineto
          251 235 rmoveto
          35 -719 -35 vlineto
          endchar
        </CharString>
        <CharString name="dvJA">
          231 861 -35 callsubr
          -893 -35 701 -199 -273 -169 vlineto
          -89 callgsubr
          233 -470 0 callgsubr
        </CharString>
        <CharString name="dvJH">
          -24 149 103 rmoveto
          -27 12 51 -78 132 hhcurveto
          122 55 69 81 73 -37 43 -47 22 hvcurveto
          242 -1 rlineto
          32 -407 vlineto
          9 callsubr
          217 35 -711 146 callgsubr
          endchar
        </CharString>
        <CharString name="dvJHA">
          239 272 317 rmoveto
          9 callsubr
          216 -388 hlineto
          40 -317 115 callgsubr
          -901 -65 callsubr
          241 -1 rlineto
          -285 vlineto
          endchar
        </CharString>
        <CharString name="dvJH_MA">
          738 1176 448 59 callgsubr
          -376 -546 -95 callgsubr
          -528 158 rmoveto
          9 callsubr
          461 276 callgsubr
          hlineto
          -91 -67 -49 -82 -14 hvcurveto
          730 388 rmoveto
          35 -1400 -65 callsubr
          199 -1 rlineto
          -96 65 223 callsubr
          73 callgsubr
        </CharString>
        <CharString name="dvJH_NA">
          729 272 317 rmoveto
          9 callsubr
          705 264 callsubr
          hlineto
          -114 301 callsubr
          hvcurveto
          -3 352 callsubr
          37 8 76 callsubr
          -1390 -65 callsubr
          194 -1 rlineto
          -84 17 71 -56 98 5 callsubr
        </CharString>
        <CharString name="dvJH_R">
          -24 149 103 rmoveto
          -27 12 51 -78 132 hhcurveto
          122 55 69 81 73 -37 43 -47 22 hvcurveto
          251 -1 rlineto
          32 -416 vlineto
          9 callsubr
          226 35 -720 146 callgsubr
          539 255 rmoveto
          -206 -284 rlineto
          43 hlineto
          163 235 rlineto
          endchar
        </CharString>
        <CharString name="dvJH_RA">
          287 272 317 rmoveto
          9 callsubr
          263 -388 hlineto
          40 -317 115 callgsubr
          -948 -65 callsubr
          288 -1 rlineto
          -41 vlineto
          1 -6 -244 -340 rlineto
          43 hlineto
          201 286 rlineto
          -184 vlineto
          endchar
        </CharString>
        <CharString name="dvJH_YA">
          690 272 317 rmoveto
          9 callsubr
          393 -82 hlineto
          -49 callgsubr
          -34 4 -31 7 -29 vhcurveto
          256 -153 rmoveto
          -88 callgsubr
          -1352 -65 callsubr
          223 -1 rlineto
          -97 36 82 -59 122 35 callgsubr
        </CharString>
        <CharString name="dvJ_BA">
          633 868 142 -51 callgsubr
          243 -142 rmoveto
          107 callgsubr
          -1295 -35 1104 77 callsubr
          -73 -66 -28 -50 -43 hvcurveto
          -282 -169 hlineto
          -89 callgsubr
          216 vlineto
          -20 -35 -11 -42 -48 vvcurveto
          138 callgsubr
          vhcurveto
          -239 vlineto
          -206 554 rmoveto
          142 65 -110 -97 -43 -14 -50 -31 -39 hvcurveto
          -307 286 rlineto
          34 38 51 19 56 hhcurveto
          endchar
        </CharString>
        <CharString name="dvJ_DA">
          562 1192 -35 callsubr
          -1224 -35 1022 272 callgsubr
          -80 -74 -23 -49 -49 hvcurveto
          -298 -169 hlineto
          -89 callgsubr
          229 vlineto
          -21 -33 -12 -42 -50 vvcurveto
          -33 callgsubr
        </CharString>
        <CharString name="dvJ_DDA">
          501 1131 -35 callsubr
          -1163 -35 969 299 callsubr
          vlineto
          -56 -60 -13 -38 -34 hvcurveto
          -252 -169 hlineto
          -89 callgsubr
          190 vlineto
          -5 -14 -3 -16 -18 vvcurveto
          277 callgsubr
          vhcurveto
          -30 callsubr
        </CharString>
        <CharString name="dvJ_JA">
          801 1431 -35 callsubr
          -1463 -35 1271 -199 -273 -169 vlineto
          -9 callsubr
          -303 -169 vlineto
          -89 callgsubr
          223 -133 -68 callsubr
          233 -470 0 callgsubr
        </CharString>
        <CharString name="dvJ_JHA">
          785 818 317 rmoveto
          9 callsubr
          216 -388 hlineto
          40 -317 115 callgsubr
          -1447 -35 1001 251 callgsubr
          -56 -61 -13 -39 -35 hvcurveto
          -275 -169 hlineto
          -89 callgsubr
          213 vlineto
          -5 -14 -3 -16 -19 vvcurveto
          316 callgsubr
          vhcurveto
          48 hlineto
          111 61 -51 -84 -63 -43 -58 -103 -119 -59 68 74 -12 hvcurveto
          -36 -245 38 176 hlineto
          -27 12 51 -78 132 hhcurveto
          122 55 69 81 73 -37 43 -47 22 hvcurveto
          241 -1 rlineto
          -285 vlineto
          endchar
        </CharString>
        <CharString name="dvJ_J_NYA">
          710 1188 hmoveto
          107 callgsubr
          -1372 -35 1180 -200 -752 -168 vlineto
          -24 callgsubr
          168 -40 -168 -70 callgsubr
          134 339 vlineto
          118 88 -64 -114 -93 -61 -70 -100 -86 -84 52 104 -11 hvcurveto
          -38 -265 40 183 hlineto
          -54 23 66 -55 99 hhcurveto
          113 76 78 113 95 -53 62 -74 28 hvcurveto
          257 -471 hlineto
          endchar
        </CharString>
        <CharString name="dvJ_J_VA">
          1195 1432 40 callsubr
          393 591 rmoveto
          -1857 -35 1666 -257 hlineto
          10 callgsubr
          -70 -62 -26 -47 -43 hvcurveto
          -284 -169 hlineto
          -9 callsubr
          -303 -169 vlineto
          -89 callgsubr
          223 -133 -68 callsubr
          218 vlineto
          -19 -34 -11 -40 -46 vvcurveto
          -147 -60 callsubr
        </CharString>
        <CharString name="dvJ_J_YA">
          1259 1475 164 rmoveto
          -144 -84 99 164 hvcurveto
          3 0 5 6 vvcurveto
          130 callgsubr
          -120 vhcurveto
          414 541 rmoveto
          35 -1921 -35 1456 -82 vlineto
          -121 -85 -30 -113 vhcurveto
          -260 -135 hlineto
          -24 callgsubr
          135 -303 -135 vlineto
          -24 callgsubr
          135 -40 -135 -70 callgsubr
          100 223 -100 vlineto
          -110 63 -78 107 111 66 179 callgsubr
          100 186 vlineto
          6 5 0 4 hhcurveto
          216 callgsubr
          -184 94 -119 26 callsubr
        </CharString>
        <CharString name="dvJ_KA">
          963 1080 hmoveto
          -102 callgsubr
          -1626 -35 1074 -257 vlineto
          -59 callgsubr
          -66 -58 -25 -44 -39 hvcurveto
          -289 -169 hlineto
          -89 callgsubr
          223 vlineto
          -18 -33 -11 -41 -47 vvcurveto
          134 callsubr
        </CharString>
        <CharString name="dvJ_MA">
          712 1150 487 rmoveto
          -215 218 215 hlineto
          -376 -507 325 callsubr
          -114 hlineto
          -89 -47 -51 -76 vhcurveto
          568 507 rmoveto
          35 -1374 -35 929 -218 -501 -150 vlineto
          -24 callgsubr
          150 -40 -150 -70 callgsubr
          116 241 vlineto
          -42 -27 -25 -44 -59 vvcurveto
          -95 65 -66 99 100 61 63 115 vhcurveto
          112 215 -452 0 callgsubr
        </CharString>
        <CharString name="dvJ_NA">
          716 650 322 rmoveto
          89 64 59 89 88 62 -60 -86 -86 -62 -61 -88 -91 -62 60 85 vhcurveto
          694 383 rmoveto
          35 -1376 -35 1184 -199 -756 -169 vlineto
          -89 callgsubr
          248 vlineto
          -45 -32 -27 -51 -65 vvcurveto
          -106 78 -74 113 345 callsubr
          -36 53 -46 26 vhcurveto
          246 -471 330 callgsubr
        </CharString>
        <CharString name="dvJ_NY">
          -70 699 -35 callsubr
          -731 -35 vlineto
          731 -201 rmoveto
          34 -456 -34 8 vlineto
          50 callgsubr
          endchar
        </CharString>
        <CharString name="dvJ_NYA">
          186 664 hmoveto
          107 callgsubr
          -848 -35 657 -167 -382 -34 8 vlineto
          50 callgsubr
          259 -504 hlineto
          endchar
        </CharString>
        <CharString name="dvJ_NY_YA">
          704 920 343 callgsubr
          -71 92 152 -13 hvcurveto
          -1 11 rlineto
          129 2 88 51 146 61 callsubr
          -1366 -35 901 -82 vlineto
          -135 -81 -36 -107 -2 vhcurveto
          49 -21 -51 39 -86 hhcurveto
          -281 -34 9 hlineto
          50 callgsubr
          157 hlineto
          73 47 -39 -51 11 hvcurveto
          -3 vlineto
          -171 11 82 -111 166 hhcurveto
          123 76 326 callgsubr
        </CharString>
        <CharString name="dvJ_R">
          80 callgsubr
          endchar
        </CharString>
        <CharString name="dvJ_RA">
          66 callgsubr
          endchar
        </CharString>
        <CharString name="dvJ_TA">
          640 1270 -35 callsubr
          -1302 -35 1111 -204 -683 -164 vlineto
          -24 callgsubr
          164 -40 -164 -70 callgsubr
          128 326 vlineto
          -81 -35 -48 -69 -112 vvcurveto
          -158 99 -89 160 vhcurveto
          27 288 callsubr
          78 137 147 97 191 callsubr
          160 153 callgsubr
          endchar
        </CharString>
        <CharString name="dvJ_TTA">
          601 1231 -35 callsubr
          -1263 -35 987 -139 -41 vlineto
          -79 -70 -20 -40 -51 hvcurveto
          -318 -169 hlineto
          -89 callgsubr
          241 vlineto
          -32 -41 -19 -55 -69 vvcurveto
          43 callgsubr
          vhcurveto
          -88 callsubr
        </CharString>
        <CharString name="dvJ_VA">
          625 862 40 callsubr
          393 591 rmoveto
          -1287 -35 1096 -257 hlineto
          10 callgsubr
          -70 -62 -26 -47 -43 hvcurveto
          -284 -169 hlineto
          -89 callgsubr
          218 vlineto
          -19 -34 -11 -40 -46 vvcurveto
          -147 -60 callsubr
        </CharString>
        <CharString name="dvJ_YA">
          -2 callgsubr
          endchar
        </CharString>
        <CharString name="dvJx">
          -55 687 470 rmoveto
          36 -291 -169 vlineto
          -89 callgsubr
          vlineto
          251 235 rmoveto
          35 -719 -35 vlineto
          332 239 callgsubr
          endchar
        </CharString>
        <CharString name="dvJxA">
          231 861 -35 callsubr
          -893 -35 701 -199 -273 -169 vlineto
          -89 callgsubr
          233 -470 41 705 vlineto
          -410 239 callgsubr
          endchar
        </CharString>
        <CharString name="dvJx_JxA">
          801 300 21 rmoveto
          -103 callsubr
          570 hmoveto
          -103 callsubr
          561 684 rmoveto
          35 -1463 -35 1271 -199 -273 -169 vlineto
          -9 callsubr
          -303 -169 vlineto
          -89 callgsubr
          223 -133 -68 callsubr
          233 -470 0 callgsubr
        </CharString>
        <CharString name="dvJx_R">
          80 callgsubr
          -262 -417 -19 callsubr
          endchar
        </CharString>
        <CharString name="dvJx_RA">
          66 callgsubr
          -537 -651 -19 callsubr
          endchar
        </CharString>
        <CharString name="dvJx_YA">
          -2 callgsubr
          -867 239 callgsubr
          endchar
        </CharString>
        <CharString name="dvK">
          6 callsubr
          -92 callsubr
          hvcurveto
          -245 vlineto
          -186 152 211 callsubr
        </CharString>
        <CharString name="dvKA">
          414 530 hmoveto
          -102 callgsubr
          -1076 -105 callsubr
          vlineto
          -186 152 211 callsubr
        </CharString>
        <CharString name="dvKH">
          27 callsubr
          104 -351 -72 callsubr
          endchar
        </CharString>
        <CharString name="dvKHA">
          40 callgsubr
          -262 -116 -46 callgsubr
          endchar
        </CharString>
        <CharString name="dvKH_KHA">
          995 1269 184 rmoveto
          -93 205 callgsubr
          90 118 46 -92 -78 hvcurveto
          -1 vlineto
          -75 -47 -95 -117 vhcurveto
          -843 170 -72 callsubr
          1048 -354 115 callgsubr
          -1657 -84 callgsubr
          17 -2 18 hhcurveto
          77 62 30 54 34 hvcurveto
          -11 237 callsubr
          90 54 49 59 25 hvcurveto
          -259 vlineto
          -1107 35 rmoveto
          -87 callsubr
          635 -150 vlineto
          -135 -74 -27 -72 vhcurveto
          -9 hlineto
          102 -16 -78 63 -111 hhcurveto
          -124 -85 -17 callgsubr
          675 hmoveto
          320 callsubr
          83 38 152 hvcurveto
          151 436 273 callgsubr
          49 -68 73 -27 hvcurveto
          -69 -27 -60 -61 -97 hhcurveto
          endchar
        </CharString>
        <CharString name="dvKH_MA">
          865 1303 448 309 callsubr
          -877 -351 -72 callsubr
          501 -195 -24 callsubr
        </CharString>
        <CharString name="dvKH_NA">
          870 807 325 rmoveto
          89 63 59 90 87 62 -60 -86 -86 -62 -61 -87 -92 -61 60 85 vhcurveto
          -381 29 -72 callsubr
          -100 -319 rmoveto
          -87 callsubr
          987 226 callgsubr
          -77 -61 -32 -56 -31 hvcurveto
          86 -24 -73 51 -101 hhcurveto
          -125 -83 -17 callgsubr
          1174 670 rmoveto
          35 -1532 -84 callgsubr
          17 -2 18 hhcurveto
          87 67 39 67 32 hvcurveto
          -68 25 65 -44 88 hhcurveto
          107 76 106 callsubr
          35 callsubr
          endchar
        </CharString>
        <CharString name="dvKH_R">
          9 callgsubr
          104 -351 -72 callsubr
          endchar
        </CharString>
        <CharString name="dvKH_RA">
          17 callgsubr
          -268 -149 -46 callgsubr
          endchar
        </CharString>
        <CharString name="dvKH_SHA">
          856 426 354 -54 callsubr
        </CharString>
        <CharString name="dvKH_TA">
          765 426 354 -32 callgsubr
        </CharString>
        <CharString name="dvKH_VA">
          768 1246 hmoveto
          24 callsubr
          -579 205 -72 callsubr
          -100 -319 rmoveto
          -87 callsubr
          884 268 callsubr
          -98 -81 -51 -86 -33 hvcurveto
          73 -29 -68 43 -93 hhcurveto
          -125 -83 -17 callgsubr
          endchar
        </CharString>
        <CharString name="dvKH_YA">
          818 426 354 -42 callgsubr
        </CharString>
        <CharString name="dvKHx">
          27 callsubr
          24 -834 rmoveto
          -103 callsubr
          80 483 -72 callsubr
          endchar
        </CharString>
        <CharString name="dvKHxA">
          40 callgsubr
          -242 -280 rmoveto
          -103 callsubr
          -20 164 -46 callgsubr
          endchar
        </CharString>
        <CharString name="dvKHx_MA">
          865 346 -129 rmoveto
          -103 callsubr
          80 483 -72 callsubr
          877 94 309 callsubr
          -376 -546 -24 callsubr
        </CharString>
        <CharString name="dvKHx_R">
          9 callgsubr
          -184 -769 -19 callsubr
          288 418 -72 callsubr
          endchar
        </CharString>
        <CharString name="dvKHx_RA">
          17 callgsubr
          -456 -248 -19 callsubr
          188 99 -46 callgsubr
          endchar
        </CharString>
        <CharString name="dvKHx_SA">
          892 350 -130 rmoveto
          -103 callsubr
          76 484 -72 callsubr
          -100 -319 rmoveto
          -87 callsubr
          740 -105 vlineto
          -59 callsubr
          -76 hlineto
          93 -21 -76 55 -105 203 callsubr
          -68 75 -28 hvcurveto
          -70 -26 -61 -61 -97 hhcurveto
          776 565 rmoveto
          105 228 -293 -326 247 callsubr
          420 105 rmoveto
          35 -1554 -84 callgsubr
          16 -2 18 hhcurveto
          78 62 31 54 34 hvcurveto
          -30 vlineto
          -126 62 -89 125 124 callsubr
          -56 -65 -90 -99 -47 74 103 vhcurveto
          174 520 -378 0 callgsubr
        </CharString>
        <CharString name="dvKHx_SHA">
          856 350 -130 rmoveto
          -103 callsubr
          76 484 -54 callsubr
        </CharString>
        <CharString name="dvKHx_TA">
          765 350 -130 rmoveto
          -103 callsubr
          76 484 -32 callgsubr
        </CharString>
        <CharString name="dvKHx_VA">
          768 350 -130 rmoveto
          -103 callsubr
          76 484 -72 callsubr
          820 -354 rmoveto
          24 callsubr
          -679 -114 rmoveto
          -87 callsubr
          884 268 callsubr
          -98 -81 -51 -86 -33 hvcurveto
          73 -29 -68 43 -93 hhcurveto
          -125 -83 -17 callgsubr
          endchar
        </CharString>
        <CharString name="dvKHx_YA">
          818 350 -130 rmoveto
          -103 callsubr
          76 484 -42 callgsubr
        </CharString>
        <CharString name="dvK_CA">
          798 1041 145 rmoveto
          -99 -86 63 117 107 73 83 120 hvcurveto
          31 34 -347 hlineto
          -114 -63 -53 -68 -26 hvcurveto
          277 706 311 callsubr
          vhcurveto
          -735 7 -107 callsubr
          1122 553 rmoveto
          35 -1460 -105 callsubr
          38 327 vlineto
          91 51 97 144 vhcurveto
          219 hlineto
          -80 -31 -47 -73 -92 vvcurveto
          -136 99 -73 269 callsubr
          68 callgsubr
        </CharString>
        <CharString name="dvK_DA">
          804 174 callsubr
          702 272 callgsubr
          -107 -95 -41 -87 -41 hvcurveto
          79 -31 -68 46 -86 hhcurveto
          -405 -423 -107 callsubr
          1128 553 rmoveto
          35 -1466 -105 callgsubr
          91 42 108 131 98 73 -73 -118 vhcurveto
          0 vlineto
          -1 0 -1 -2 vvcurveto
          178 callsubr
          83 69 41 58 26 vhcurveto
          -223 39 -43 callgsubr
        </CharString>
        <CharString name="dvK_JA">
          1016 306 152 -107 callsubr
          739 33 rmoveto
          -81 -50 63 89 hvcurveto
          19 vlineto
          133 -85 86 -118 -102 -55 -56 -69 -24 vhcurveto
          255 924 246 callgsubr
          vhcurveto
          601 520 rmoveto
          35 -1678 -105 callgsubr
          91 42 108 131 98 73 -72 -118 vhcurveto
          -17 vlineto
          -106 62 -78 108 285 callgsubr
          233 -470 68 callgsubr
        </CharString>
        <CharString name="dvK_KA">
          1208 306 152 -107 callsubr
          980 325 callgsubr
          -89 -74 -45 -77 -34 hvcurveto
          77 -32 -67 45 -85 hhcurveto
          114 callsubr
          255 vlineto
          794 -705 rmoveto
          -102 callgsubr
          -1870 -105 callgsubr
          91 42 108 131 98 73 -73 -118 134 callsubr
        </CharString>
        <CharString name="dvK_KHA">
          1099 915 396 rmoveto
          -6 hlineto
          110 -17 -77 68 -104 hhcurveto
          114 callsubr
          256 531 -147 vlineto
          -135 -74 -27 -72 vhcurveto
          -609 -244 -107 callsubr
          1272 -152 115 callgsubr
          -1761 -105 callgsubr
          91 42 108 131 98 73 -73 -118 vhcurveto
          -127 vlineto
          -138 91 -85 139 115 73 73 83 32 vhcurveto
          -3 14 15 -1 15 hhcurveto
          90 54 49 59 25 hvcurveto
          -259 vlineto
          -163 184 rmoveto
          -94 205 callgsubr
          91 117 46 -92 -78 hvcurveto
          -1 vlineto
          -75 -47 -95 -116 vhcurveto
          -269 -149 rmoveto
          320 callsubr
          84 38 152 hvcurveto
          151 435 273 callgsubr
          50 -67 72 -28 hvcurveto
          -69 -27 -60 -61 -97 hhcurveto
          endchar
        </CharString>
        <CharString name="dvK_LA">
          1093 1244 391 rmoveto
          284 callsubr
          -84 -61 -42 -68 -30 hvcurveto
          82 -29 -69 48 -86 hhcurveto
          114 callsubr
          256 876 38 callsubr
          -938 -239 -107 callsubr
          224 189 rmoveto
          91 42 179 callsubr
          96 72 -70 -114 3 vhcurveto
          -1 -8 0 -8 -9 vvcurveto
          333 callgsubr
          vhcurveto
          -101 callgsubr
          -55 callgsubr
          -1755 -105 callsubr
          38 vlineto
          endchar
        </CharString>
        <CharString name="dvK_MA">
          962 180 callgsubr
          111 callsubr
          718 7 164 callsubr
          -1624 -105 callgsubr
          91 42 108 131 96 72 -70 -114 3 vhcurveto
          -9 -20 -5 -24 -26 vvcurveto
          33 callgsubr
        </CharString>
        <CharString name="dvK_NA">
          974 174 callsubr
          882 226 callgsubr
          -74 -59 -30 -51 -33 hvcurveto
          93 -25 -70 54 -94 hhcurveto
          198 -250 -102 callsubr
          -603 -173 -107 callsubr
          1297 553 rmoveto
          35 -1635 -105 callgsubr
          91 42 108 131 96 72 -70 -116 3 vhcurveto
          -1 -9 -1 -10 -10 vvcurveto
          4 callsubr
        </CharString>
        <CharString name="dvK_NNA">
          1009 530 2 callsubr
          341 -215 hlineto
          52 -35 -56 31 -70 hhcurveto
          -101 -55 -56 -68 -24 hvcurveto
          -224 -297 -107 callsubr
          738 89 rmoveto
          -57 callgsubr
          595 346 callsubr
          -1671 -105 callgsubr
          91 42 108 131 86 67 -57 -88 15 vhcurveto
          -2 -15 callgsubr
          231 -705 68 callgsubr
        </CharString>
        <CharString name="dvK_PA">
          787 530 2 callsubr
          308 -196 hlineto
          42 -32 -48 23 -56 hhcurveto
          -96 -53 -55 -67 -23 hvcurveto
          -224 -300 -107 callsubr
          748 102 rmoveto
          -90 callsubr
          -1449 -105 callgsubr
          91 40 108 124 74 57 -52 -85 16 vhcurveto
          1 hlineto
          -114 16 68 -70 121 62 callgsubr
        </CharString>
        <CharString name="dvK_PHA">
          211 callgsubr
          -224 -298 -107 callsubr
          763 102 rmoveto
          -84 callsubr
          -1818 -105 callgsubr
          91 42 108 131 78 63 -47 -78 21 vhcurveto
          -122 12 66 -74 119 80 callsubr
          endchar
        </CharString>
        <CharString name="dvK_P_RA">
          787 530 2 callsubr
          308 -196 hlineto
          42 -32 -48 23 -56 hhcurveto
          -96 -53 -55 -67 -23 hvcurveto
          -224 -300 -107 callsubr
          748 102 rmoveto
          -90 callsubr
          -1449 -105 callgsubr
          91 40 108 124 73 57 -51 -83 17 vhcurveto
          -116 16 68 -70 122 hhcurveto
          17 16 2 3 15 hvcurveto
          -31 callgsubr
        </CharString>
        <CharString name="dvK_R">
          6 callsubr
          334 callgsubr
          hvcurveto
          230 callgsubr
          -186 152 -6 callsubr
        </CharString>
        <CharString name="dvK_RA">
          414 530 hmoveto
          -102 callgsubr
          -1076 251 callsubr
          334 callgsubr
          hvcurveto
          230 callgsubr
          -186 152 -6 callsubr
        </CharString>
        <CharString name="dvK_SA">
          996 -70 callsubr
          229 -293 -327 vlineto
          94 callsubr
          105 rmoveto
          35 -1658 -105 callgsubr
          91 42 108 131 98 73 -73 -100 vhcurveto
          -161 45 callgsubr
        </CharString>
        <CharString name="dvK_SHA">
          963 306 152 -107 callsubr
          405 422 247 callgsubr
          256 487 vlineto
          5 17 347 callgsubr
          -87 -59 -117 hvcurveto
          -113 hlineto
          123 -9 -80 77 -111 hhcurveto
          546 -383 rmoveto
          12 -39 -12 vlineto
          -98 -57 -66 -91 -106 -50 44 callgsubr
          134 101 71 136 129 -79 74 -117 -23 -21 -3 -6 -18 hvcurveto
          -1043 -35 524 -257 hlineto
          -99 callgsubr
          38 204 callgsubr
          98 73 -73 -118 vhcurveto
          -140 vlineto
          -7 callgsubr
          185 -191 94 callgsubr
        </CharString>
        <CharString name="dvK_SS">
          -86 142 581 -72 callgsubr
          293 32 -246 hlineto
          51 37 39 46 74 -36 callsubr
          endchar
        </CharString>
        <CharString name="dvK_SSA">
          168 142 581 -72 callgsubr
          283 -397 132 callgsubr
          -191 -311 -236 hlineto
          51 37 39 46 74 -36 callsubr
          endchar
        </CharString>
        <CharString name="dvK_SS_MA">
          664 726 140 161 callsubr
          -100 -47 -58 -76 vhcurveto
          -584 441 -72 callgsubr
          301 hlineto
          -40 -28 -23 -44 -58 vvcurveto
          -96 65 -66 -23 callsubr
          vhcurveto
          95 215 -396 177 callgsubr
          -732 -35 287 -275 -478 vlineto
          51 37 39 46 74 -36 callsubr
          709 479 rmoveto
          -215 275 215 hlineto
          endchar
        </CharString>
        <CharString name="dvK_SS_M_YA">
          1131 727 139 242 callgsubr
          -585 442 -72 callgsubr
          303 hlineto
          -41 -28 -24 -45 -58 vvcurveto
          -97 66 -65 99 100 61 66 129 vhcurveto
          94 191 219 callgsubr
          -171 94 -111 167 122 77 64 68 30 vhcurveto
          -234 260 callsubr
          -1199 -35 287 -277 -479 vlineto
          51 37 40 46 75 -36 callsubr
          711 478 rmoveto
          -216 277 407 -109 hlineto
          -135 -84 -33 -107 vhcurveto
          243 -291 315 callgsubr
          92 153 4 0 4 1 6 hvcurveto
          124 92 346 callgsubr
          113 234 -363 vlineto
          -123 -102 -82 -120 vhcurveto
          endchar
        </CharString>
        <CharString name="dvK_SS_VA">
          570 142 581 -72 callgsubr
          249 hlineto
          -3 -15 -1 -16 -16 vvcurveto
          -147 100 -88 132 110 68 57 71 30 vhcurveto
          -243 132 callgsubr
          -632 -35 441 268 callsubr
          -103 -86 -56 -94 -31 hvcurveto
          -210 hlineto
          51 37 39 46 74 -36 callsubr
          415 199 197 callsubr
          endchar
        </CharString>
        <CharString name="dvK_SS_YA">
          620 142 581 -72 callgsubr
          244 hlineto
          -5 0 -4 -5 vvcurveto
          -154 96 -100 166 122 76 64 67 30 vhcurveto
          -260 260 callsubr
          -680 -35 214 -109 vlineto
          -136 -87 -32 -106 vhcurveto
          -221 hlineto
          51 37 40 46 75 -36 callsubr
          443 214 315 callgsubr
          83 136 3 0 5 1 6 hvcurveto
          129 2 87 51 146 vvcurveto
          109 234 -7 callsubr
          -102 -81 -120 vhcurveto
          endchar
        </CharString>
        <CharString name="dvK_S_DDA">
          1317 -70 callsubr
          548 299 callsubr
          vlineto
          293 callsubr
          hvcurveto
          -4 294 callsubr
          -327 6 callgsubr
          742 105 rmoveto
          35 -1979 -105 callgsubr
          91 42 108 131 98 73 -73 -100 vhcurveto
          -161 vlineto
          -126 61 -89 125 -26 callsubr
          vhcurveto
          281 callsubr
          526 vlineto
          -66 21 69 -26 75 hhcurveto
          -30 callsubr
        </CharString>
        <CharString name="dvK_S_P_LA">
          1990 -70 callsubr
          205 -245 vlineto
          -17 312 callsubr
          235 callgsubr
          412 -346 36 callgsubr
          -372 -66 rmoveto
          281 callsubr
          504 vlineto
          -100 22 64 -59 109 hhcurveto
          73 53 30 48 33 hvcurveto
          -118 12 75 -87 137 hhcurveto
          -81 callgsubr
          -55 callgsubr
          -2652 -105 callgsubr
          91 42 108 131 98 73 -73 -100 vhcurveto
          -161 vlineto
          -126 61 -89 125 -26 callsubr
          vhcurveto
          endchar
        </CharString>
</ttFont>
